<?xml version="1.0" encoding="UTF-8" standalone="no"?>
<svg
   width="1133"
   zoomAndPan="magnify"
   viewBox="0 0 850.5 567.000005"
   height="755"
   preserveAspectRatio="xMidYMid meet"
   version="1.0"
   id="svg17"
   sodipodi:docname="Football_pitch_horizontal2.svg"
   inkscape:version="1.3.2 (091e20e, 2023-11-25)"
   xmlns:inkscape="http://www.inkscape.org/namespaces/inkscape"
   xmlns:sodipodi="http://sodipodi.sourceforge.net/DTD/sodipodi-0.dtd"
   xmlns="http://www.w3.org/2000/svg"
   xmlns:svg="http://www.w3.org/2000/svg">
  <sodipodi:namedview
     id="namedview17"
     pagecolor="#ffffff"
     bordercolor="#000000"
     borderopacity="0.25"
     inkscape:showpageshadow="2"
     inkscape:pageopacity="0.0"
     inkscape:pagecheckerboard="0"
     inkscape:deskcolor="#d1d1d1"
     inkscape:zoom="0.71226831"
     inkscape:cx="567.20199"
     inkscape:cy="376.2627"
     inkscape:window-width="1920"
     inkscape:window-height="947"
     inkscape:window-x="1440"
     inkscape:window-y="25"
     inkscape:window-maximized="0"
     inkscape:current-layer="svg17" />
  <defs
     id="defs2">
    <clipPath
       id="8c82c38610">
      <path
         d="M 0.5 0 L 849.5 0 L 849.5 566 L 0.5 566 Z M 0.5 0 "
         clip-rule="nonzero"
         id="path1" />
    </clipPath>
    <clipPath
       id="e934e56f2f">
      <path
         d="M 0.5 1 L 849.5 1 L 849.5 566 L 0.5 566 Z M 0.5 1 "
         clip-rule="nonzero"
         id="path2" />
    </clipPath>
  </defs>
  <g
     clip-path="url(#8c82c38610)"
     id="g4"
     style="fill:#000000;fill-opacity:1">
    <path
       fill="#ffffff"
       d="M 0.5 0 L 849.5 0 L 849.5 566 L 0.5 566 Z M 0.5 0 "
       fill-opacity="1"
       fill-rule="nonzero"
       id="path3"
       style="fill:#000000;fill-opacity:1" />
    <path
       fill="#ffffff"
       d="M 0.5 0 L 849.5 0 L 849.5 566 L 0.5 566 Z M 0.5 0 "
       fill-opacity="1"
       fill-rule="nonzero"
       id="path4"
       style="fill:#000000;fill-opacity:1" />
    <rect
       x="-85.05"
       width="1020.6"
       fill="#3f8977"
       y="-56.700001"
       height="680.400006"
       fill-opacity="1"
       id="rect4"
       style="fill:#333333;fill-opacity:1" />
  </g>
  <path
     stroke-linecap="butt"
     transform="matrix(0, -7.705265, 7.705265, 0, 20.420333, 547.072579)"
     fill="none"
     stroke-linejoin="miter"
     d="M -0.000212762 0.000200157 L 68.000164 0.000200157 L 68.000164 104.999931 L -0.000212762 104.999931 Z M -0.000212762 0.000200157 "
     stroke="#ffffff"
     stroke-width="0.5"
     stroke-opacity="1"
     stroke-miterlimit="4"
     id="path5" />
  <path
     stroke-linecap="butt"
     transform="matrix(0, -7.705265, 7.705265, 0, 20.420333, 547.072579)"
     fill="none"
     stroke-linejoin="miter"
     d="M -0.000212762 52.499812 L 68.000164 52.499812 "
     stroke="#ffffff"
     stroke-width="0.5"
     stroke-opacity="1"
     stroke-miterlimit="4"
     id="path6" />
  <path
     stroke-linecap="butt"
     transform="matrix(0, -7.705265, 7.705265, 0, 20.420333, 547.072579)"
     fill="none"
     stroke-linejoin="miter"
     d="M 43.15007 52.499812 C 43.15007 52.649872 43.146521 52.799425 43.138917 52.948978 C 43.13182 53.09853 43.120666 53.247576 43.105965 53.396622 C 43.091263 53.545668 43.073012 53.694207 43.051213 53.842745 C 43.028907 53.990777 43.003559 54.138302 42.974155 54.28532 C 42.944752 54.431831 42.912307 54.577835 42.875806 54.723332 C 42.839304 54.868323 42.799255 55.012806 42.756163 55.156275 C 42.712565 55.299237 42.665418 55.441693 42.615229 55.582627 C 42.564533 55.723562 42.510795 55.862975 42.453509 56.001375 C 42.396223 56.139775 42.335388 56.276653 42.271511 56.412011 C 42.207634 56.547369 42.140209 56.681206 42.069741 56.813523 C 41.998767 56.945332 41.925258 57.07562 41.848201 57.203881 C 41.771143 57.332648 41.691043 57.458881 41.607902 57.583593 C 41.524761 57.707797 41.438578 57.830481 41.349353 57.950631 C 41.260129 58.07078 41.167862 58.188901 41.073061 58.304488 C 40.97826 58.420581 40.880417 58.533633 40.779532 58.644657 C 40.679154 58.755681 40.575735 58.86417 40.46978 58.970124 C 40.364333 59.076078 40.255844 59.178991 40.14482 59.279876 C 40.033796 59.380254 39.920237 59.478097 39.804651 59.572898 C 39.689064 59.668206 39.570943 59.759966 39.450794 59.84919 C 39.330137 59.938415 39.20796 60.024598 39.083249 60.107739 C 38.959044 60.19088 38.832304 60.27098 38.704044 60.348037 C 38.575783 60.425095 38.445495 60.499111 38.313179 60.569578 C 38.181369 60.640046 38.047532 60.707471 37.912174 60.771348 C 37.776817 60.835732 37.639938 60.89606 37.501538 60.953346 C 37.363138 61.010632 37.223725 61.064877 37.082283 61.115066 C 36.941349 61.165762 36.7994 61.212402 36.655931 61.256 C 36.512969 61.299599 36.368486 61.339141 36.223496 61.375642 C 36.077998 61.412143 35.931994 61.445096 35.784976 61.473992 C 35.637958 61.503396 35.49094 61.528744 35.342402 61.55105 C 35.19437 61.572849 35.045831 61.5911 34.896785 61.605802 C 34.747739 61.620503 34.598693 61.631656 34.449141 61.638754 C 34.299588 61.646358 34.149528 61.649907 33.999975 61.649907 C 33.850423 61.649907 33.700363 61.646358 33.55081 61.638754 C 33.401257 61.631656 33.252212 61.620503 33.103166 61.605802 C 32.95412 61.5911 32.805581 61.572849 32.657549 61.55105 C 32.509517 61.528744 32.361992 61.503396 32.214974 61.473992 C 32.067956 61.445096 31.921952 61.412143 31.776962 61.375642 C 31.631465 61.339141 31.486982 61.299599 31.34402 61.256 C 31.20055 61.212402 31.058602 61.165762 30.917668 61.115066 C 30.776226 61.064877 30.636813 61.010632 30.498413 60.953346 C 30.360013 60.89606 30.223134 60.835732 30.087776 60.771348 C 29.952418 60.707471 29.818581 60.640046 29.686772 60.569578 C 29.554456 60.499111 29.424168 60.425095 29.295907 60.348037 C 29.167647 60.27098 29.040907 60.19088 28.916702 60.107739 C 28.79199 60.024598 28.669813 59.938415 28.549157 59.84919 C 28.429008 59.759966 28.310887 59.668206 28.1953 59.572898 C 28.079714 59.478097 27.966155 59.380254 27.855131 59.279876 C 27.744107 59.178991 27.635618 59.076078 27.530171 58.970124 C 27.424216 58.86417 27.320797 58.755681 27.220419 58.644657 C 27.119534 58.533633 27.022198 58.420581 26.92689 58.304488 C 26.832089 58.188901 26.739822 58.07078 26.650598 57.950631 C 26.561373 57.830481 26.47519 57.707797 26.392049 57.583593 C 26.308907 57.458881 26.228808 57.332648 26.15175 57.203881 C 26.074693 57.07562 26.001184 56.945332 25.930209 56.813523 C 25.859742 56.681206 25.792317 56.547369 25.72844 56.412011 C 25.664563 56.276653 25.603728 56.139775 25.546442 56.001375 C 25.489156 55.862975 25.435418 55.723562 25.384722 55.582627 C 25.334533 55.441693 25.287386 55.299237 25.243788 55.156275 C 25.200696 55.012806 25.160646 54.868323 25.124145 54.723332 C 25.087644 54.577835 25.055199 54.431831 25.025795 54.28532 C 24.996392 54.138302 24.971044 53.990777 24.949245 53.842745 C 24.926939 53.694207 24.908688 53.545668 24.893986 53.396622 C 24.879284 53.247576 24.868131 53.09853 24.861034 52.948978 C 24.85343 52.799425 24.849881 52.649872 24.849881 52.499812 C 24.849881 52.35026 24.85343 52.200707 24.861034 52.051154 C 24.868131 51.901601 24.879284 51.752048 24.893986 51.603003 C 24.908688 51.453957 24.926939 51.305418 24.949245 51.157386 C 24.971044 51.009354 24.996392 50.861829 25.025795 50.714811 C 25.055199 50.5683 25.087644 50.421789 25.124145 50.276799 C 25.160646 50.131302 25.200696 49.987326 25.243788 49.843857 C 25.287386 49.700387 25.334533 49.558439 25.384722 49.417504 C 25.435418 49.27657 25.489156 49.136649 25.546442 48.99825 C 25.603728 48.85985 25.664563 48.723478 25.72844 48.587613 C 25.792317 48.452255 25.859742 48.318925 25.930209 48.186609 C 26.001184 48.0548 26.074693 47.924512 26.15175 47.795744 C 26.228808 47.667484 26.308907 47.541251 26.392049 47.416539 C 26.47519 47.291827 26.561373 47.16965 26.650598 47.049501 C 26.739822 46.928845 26.832089 46.811231 26.92689 46.695137 C 27.022198 46.579551 27.119534 46.465992 27.220419 46.355475 C 27.320797 46.244451 27.424216 46.135962 27.530171 46.030007 C 27.635618 45.924053 27.744107 45.820634 27.855131 45.720256 C 27.966155 45.619878 28.079714 45.522035 28.1953 45.426727 C 28.310887 45.331926 28.429008 45.239659 28.549157 45.150434 C 28.669813 45.06121 28.79199 44.975027 28.916702 44.891886 C 29.040907 44.808744 29.167647 44.728645 29.295907 44.651587 C 29.424168 44.575036 29.554456 44.501021 29.686772 44.430553 C 29.818581 44.359579 29.952418 44.292661 30.087776 44.228277 C 30.223134 44.1644 30.360013 44.103565 30.498413 44.046279 C 30.636813 43.988992 30.776226 43.935255 30.917668 43.885066 C 31.058602 43.83437 31.20055 43.787223 31.34402 43.744131 C 31.486982 43.700533 31.631465 43.660483 31.776962 43.623982 C 31.921952 43.587988 32.067956 43.555036 32.214974 43.525632 C 32.361992 43.496736 32.509517 43.470881 32.657549 43.449082 C 32.805581 43.427282 32.95412 43.408525 33.103166 43.393823 C 33.252212 43.379628 33.401257 43.368475 33.55081 43.360871 C 33.700363 43.353773 33.850423 43.350225 33.999975 43.350225 C 34.149528 43.350225 34.299588 43.353773 34.449141 43.360871 C 34.598693 43.368475 34.747739 43.379628 34.896785 43.393823 C 35.045831 43.408525 35.19437 43.427282 35.342402 43.449082 C 35.49094 43.470881 35.637958 43.496736 35.784976 43.525632 C 35.931994 43.555036 36.077998 43.587988 36.223496 43.623982 C 36.368486 43.660483 36.512969 43.700533 36.655931 43.744131 C 36.7994 43.787223 36.941349 43.83437 37.082283 43.885066 C 37.223725 43.935255 37.363138 43.988992 37.501538 44.046279 C 37.639938 44.103565 37.776817 44.1644 37.912174 44.228277 C 38.047532 44.292661 38.181369 44.360086 38.313179 44.430553 C 38.445495 44.501021 38.575783 44.575036 38.704044 44.651587 C 38.832304 44.728645 38.959044 44.808744 39.083249 44.891886 C 39.20796 44.975027 39.330137 45.06121 39.450794 45.150434 C 39.570943 45.239659 39.689064 45.331926 39.804651 45.426727 C 39.920237 45.522035 40.033796 45.619878 40.14482 45.720256 C 40.255844 45.820634 40.364333 45.924053 40.46978 46.030007 C 40.575735 46.135962 40.679154 46.244451 40.779532 46.355475 C 40.880417 46.465992 40.97826 46.579551 41.073061 46.695137 C 41.167862 46.811231 41.260129 46.928845 41.349353 47.049501 C 41.438578 47.16965 41.524761 47.291827 41.607902 47.416539 C 41.691043 47.541251 41.771143 47.667484 41.848201 47.795744 C 41.925258 47.924512 41.998767 48.0548 42.069741 48.186609 C 42.140209 48.318925 42.207634 48.452255 42.271511 48.587613 C 42.335388 48.723478 42.396223 48.85985 42.453509 48.99825 C 42.510795 49.136649 42.564533 49.27657 42.615229 49.417504 C 42.665418 49.558439 42.712565 49.700387 42.756163 49.843857 C 42.799255 49.987326 42.839304 50.131302 42.875806 50.276799 C 42.912307 50.421789 42.944752 50.5683 42.974155 50.714811 C 43.003559 50.861829 43.028907 51.009354 43.051213 51.157386 C 43.073012 51.305418 43.091263 51.453957 43.105965 51.603003 C 43.120666 51.752048 43.13182 51.901601 43.138917 52.051154 C 43.146521 52.200707 43.15007 52.35026 43.15007 52.499812 Z M 43.15007 52.499812 "
     stroke="#ffffff"
     stroke-width="0.5"
     stroke-opacity="1"
     stroke-miterlimit="4"
     id="path7" />
  <path
     fill="#ffffff"
     d="M 424.945312 279.316406 C 425.328125 279.316406 425.703125 279.351562 426.074219 279.425781 C 426.445312 279.5 426.808594 279.609375 427.160156 279.753906 C 427.507812 279.898438 427.84375 280.078125 428.15625 280.289062 C 428.472656 280.5 428.765625 280.738281 429.03125 281.007812 C 429.300781 281.277344 429.539062 281.566406 429.75 281.882812 C 429.960938 282.199219 430.140625 282.53125 430.285156 282.882812 C 430.429688 283.234375 430.539062 283.59375 430.613281 283.964844 C 430.6875 284.339844 430.726562 284.714844 430.726562 285.09375 C 430.726562 285.472656 430.6875 285.847656 430.613281 286.222656 C 430.539062 286.59375 430.429688 286.953125 430.285156 287.304688 C 430.140625 287.65625 429.960938 287.988281 429.75 288.304688 C 429.539062 288.621094 429.300781 288.910156 429.03125 289.179688 C 428.765625 289.449219 428.472656 289.6875 428.15625 289.898438 C 427.84375 290.109375 427.507812 290.289062 427.160156 290.433594 C 426.808594 290.578125 426.445312 290.6875 426.074219 290.761719 C 425.703125 290.835938 425.328125 290.871094 424.945312 290.871094 C 424.566406 290.871094 424.191406 290.835938 423.820312 290.761719 C 423.445312 290.6875 423.085938 290.578125 422.734375 290.433594 C 422.382812 290.289062 422.050781 290.109375 421.734375 289.898438 C 421.421875 289.6875 421.128906 289.449219 420.859375 289.179688 C 420.59375 288.910156 420.351562 288.621094 420.140625 288.304688 C 419.929688 287.988281 419.753906 287.65625 419.609375 287.304688 C 419.460938 286.953125 419.351562 286.59375 419.277344 286.222656 C 419.203125 285.847656 419.167969 285.472656 419.167969 285.09375 C 419.167969 284.714844 419.203125 284.339844 419.277344 283.964844 C 419.351562 283.59375 419.460938 283.234375 419.609375 282.882812 C 419.753906 282.53125 419.929688 282.199219 420.140625 281.882812 C 420.351562 281.566406 420.59375 281.277344 420.859375 281.007812 C 421.128906 280.738281 421.421875 280.5 421.734375 280.289062 C 422.050781 280.078125 422.382812 279.898438 422.734375 279.753906 C 423.085938 279.609375 423.445312 279.5 423.820312 279.425781 C 424.191406 279.351562 424.566406 279.316406 424.945312 279.316406 Z M 424.945312 279.316406 "
     fill-opacity="1"
     fill-rule="nonzero"
     id="path8" />
  <path
     stroke-linecap="butt"
     transform="matrix(0, -7.705265, 7.705265, 0, 20.420333, 547.072579)"
     fill="none"
     stroke-linejoin="miter"
     d="M 13.839755 0.000200157 L 13.839755 16.50018 L 54.160196 16.50018 L 54.160196 0.000200157 "
     stroke="#ffffff"
     stroke-width="0.5"
     stroke-opacity="1"
     stroke-miterlimit="4"
     id="path9" />
  <path
     stroke-linecap="butt"
     transform="matrix(0, -7.705265, 7.705265, 0, 20.420333, 547.072579)"
     fill="none"
     stroke-linejoin="miter"
     d="M 24.840249 0.000200157 L 24.840249 5.500193 L 43.160209 5.500193 L 43.160209 0.000200157 "
     stroke="#ffffff"
     stroke-width="0.5"
     stroke-opacity="1"
     stroke-miterlimit="4"
     id="path10" />
  <path
     fill="#ffffff"
     d="M 104.714844 279.316406 C 105.09375 279.316406 105.472656 279.351562 105.84375 279.425781 C 106.214844 279.5 106.578125 279.609375 106.925781 279.753906 C 107.277344 279.898438 107.609375 280.078125 107.925781 280.289062 C 108.242188 280.5 108.535156 280.738281 108.800781 281.007812 C 109.070312 281.277344 109.308594 281.566406 109.519531 281.882812 C 109.730469 282.199219 109.910156 282.53125 110.054688 282.882812 C 110.199219 283.234375 110.308594 283.59375 110.382812 283.964844 C 110.457031 284.339844 110.496094 284.714844 110.496094 285.09375 C 110.496094 285.472656 110.457031 285.847656 110.382812 286.222656 C 110.308594 286.59375 110.199219 286.953125 110.054688 287.304688 C 109.910156 287.65625 109.730469 287.988281 109.519531 288.304688 C 109.308594 288.621094 109.070312 288.910156 108.800781 289.179688 C 108.535156 289.449219 108.242188 289.6875 107.925781 289.898438 C 107.609375 290.109375 107.277344 290.289062 106.925781 290.433594 C 106.578125 290.578125 106.214844 290.6875 105.84375 290.761719 C 105.472656 290.835938 105.09375 290.871094 104.714844 290.871094 C 104.335938 290.871094 103.960938 290.835938 103.589844 290.761719 C 103.214844 290.6875 102.855469 290.578125 102.503906 290.433594 C 102.152344 290.289062 101.820312 290.109375 101.503906 289.898438 C 101.191406 289.6875 100.898438 289.449219 100.628906 289.179688 C 100.359375 288.910156 100.121094 288.621094 99.910156 288.304688 C 99.699219 287.988281 99.523438 287.65625 99.375 287.304688 C 99.230469 286.953125 99.121094 286.59375 99.046875 286.222656 C 98.972656 285.847656 98.9375 285.472656 98.9375 285.09375 C 98.9375 284.714844 98.972656 284.339844 99.046875 283.964844 C 99.121094 283.59375 99.230469 283.234375 99.375 282.882812 C 99.523438 282.53125 99.699219 282.199219 99.910156 281.882812 C 100.121094 281.566406 100.359375 281.277344 100.628906 281.007812 C 100.898438 280.738281 101.191406 280.5 101.503906 280.289062 C 101.820312 280.078125 102.152344 279.898438 102.503906 279.753906 C 102.855469 279.609375 103.214844 279.5 103.589844 279.425781 C 103.960938 279.351562 104.335938 279.316406 104.714844 279.316406 Z M 104.714844 279.316406 "
     fill-opacity="1"
     fill-rule="nonzero"
     id="path11" />
  <path
     stroke-linecap="butt"
     transform="matrix(0, -7.705265, 7.705265, 0, 20.420333, 547.072579)"
     fill="none"
     stroke-linejoin="miter"
     d="M 26.733232 16.50018 C 26.839186 16.639086 26.949703 16.774951 27.063769 16.907267 C 27.177834 17.040091 27.295449 17.169365 27.417119 17.295091 C 27.538789 17.421323 27.664008 17.5435 27.792268 17.662129 C 27.921036 17.780757 28.052845 17.895837 28.187696 18.00686 C 28.323054 18.117884 28.461453 18.22536 28.602388 18.328272 C 28.743829 18.431692 28.887806 18.531056 29.034824 18.625857 C 29.181842 18.720658 29.331394 18.811404 29.483482 18.897587 C 29.636076 18.984276 29.790192 19.065897 29.947349 19.143461 C 30.103999 19.221026 30.263184 19.294028 30.424397 19.362468 C 30.585103 19.430907 30.748343 19.494277 30.913105 19.553591 C 31.077866 19.612398 31.244149 19.666643 31.411952 19.716325 C 31.579755 19.766007 31.748573 19.810619 31.918911 19.850162 C 32.089756 19.890211 32.261108 19.924685 32.433474 19.955102 C 32.605839 19.985013 32.778712 20.009854 32.952599 20.029625 C 33.126486 20.049903 33.30088 20.065112 33.475273 20.074744 C 33.650174 20.084883 33.825075 20.089953 33.999975 20.089953 C 34.174876 20.089953 34.349777 20.084883 34.524678 20.074744 C 34.699071 20.065112 34.873465 20.049903 35.047352 20.029625 C 35.221239 20.009854 35.394111 19.985013 35.566477 19.955102 C 35.738843 19.924685 35.910702 19.890211 36.08104 19.850162 C 36.251378 19.810619 36.420195 19.766007 36.587999 19.716325 C 36.756309 19.666643 36.922084 19.612398 37.086846 19.553591 C 37.251607 19.494277 37.414848 19.430907 37.575554 19.362468 C 37.736767 19.294028 37.895952 19.221026 38.052602 19.143461 C 38.209759 19.065897 38.363875 18.984276 38.516469 18.897587 C 38.668557 18.811404 38.818109 18.720658 38.965127 18.625857 C 39.112145 18.531056 39.256122 18.431692 39.397563 18.328272 C 39.538497 18.22536 39.676897 18.117884 39.812255 18.00686 C 39.947106 17.895837 40.078915 17.780757 40.207683 17.662129 C 40.33645 17.5435 40.461162 17.421323 40.582832 17.295091 C 40.704502 17.169365 40.822116 17.040091 40.936182 16.907267 C 41.050248 16.774951 41.160765 16.639086 41.266719 16.50018 "
     stroke="#ffffff"
     stroke-width="0.5"
     stroke-opacity="1"
     stroke-miterlimit="4"
     id="path12" />
  <path
     stroke-linecap="butt"
     transform="matrix(0, 7.705265, -7.705265, 0, 829.473269, 23.114448)"
     fill="none"
     stroke-linejoin="miter"
     d="M 13.839817 0.0000795431 L 13.839817 16.500059 L 54.15975 16.500059 L 54.15975 0.0000795431 "
     stroke="#ffffff"
     stroke-width="0.5"
     stroke-opacity="1"
     stroke-miterlimit="4"
     id="path13" />
  <path
     stroke-linecap="butt"
     transform="matrix(0, 7.705265, -7.705265, 0, 829.473269, 23.114448)"
     fill="none"
     stroke-linejoin="miter"
     d="M 24.839803 0.0000795431 L 24.839803 5.500073 L 43.159764 5.500073 L 43.159764 0.0000795431 "
     stroke="#ffffff"
     stroke-width="0.5"
     stroke-opacity="1"
     stroke-miterlimit="4"
     id="path14" />
  <path
     fill="#ffffff"
     d="M 745.175781 290.871094 C 744.796875 290.871094 744.421875 290.835938 744.050781 290.761719 C 743.679688 290.6875 743.316406 290.578125 742.964844 290.433594 C 742.617188 290.289062 742.28125 290.109375 741.96875 289.898438 C 741.652344 289.6875 741.359375 289.449219 741.089844 289.179688 C 740.824219 288.910156 740.582031 288.621094 740.371094 288.304688 C 740.160156 287.988281 739.984375 287.65625 739.839844 287.304688 C 739.695312 286.953125 739.582031 286.59375 739.511719 286.222656 C 739.4375 285.847656 739.398438 285.472656 739.398438 285.09375 C 739.398438 284.714844 739.4375 284.339844 739.511719 283.964844 C 739.582031 283.59375 739.695312 283.234375 739.839844 282.882812 C 739.984375 282.53125 740.160156 282.199219 740.371094 281.882812 C 740.582031 281.566406 740.824219 281.277344 741.089844 281.007812 C 741.359375 280.738281 741.652344 280.5 741.96875 280.289062 C 742.28125 280.078125 742.617188 279.898438 742.964844 279.753906 C 743.316406 279.609375 743.679688 279.5 744.050781 279.425781 C 744.421875 279.351562 744.796875 279.316406 745.175781 279.316406 C 745.558594 279.316406 745.933594 279.351562 746.304688 279.425781 C 746.675781 279.5 747.039062 279.609375 747.390625 279.753906 C 747.738281 279.898438 748.074219 280.078125 748.386719 280.289062 C 748.703125 280.5 748.996094 280.738281 749.265625 281.007812 C 749.53125 281.277344 749.773438 281.566406 749.984375 281.882812 C 750.195312 282.199219 750.371094 282.53125 750.515625 282.882812 C 750.660156 283.234375 750.773438 283.59375 750.84375 283.964844 C 750.917969 284.339844 750.957031 284.714844 750.957031 285.09375 C 750.957031 285.472656 750.917969 285.847656 750.84375 286.222656 C 750.773438 286.59375 750.660156 286.953125 750.515625 287.304688 C 750.371094 287.65625 750.195312 287.988281 749.984375 288.304688 C 749.773438 288.621094 749.53125 288.910156 749.265625 289.179688 C 748.996094 289.449219 748.703125 289.6875 748.386719 289.898438 C 748.074219 290.109375 747.738281 290.289062 747.390625 290.433594 C 747.039062 290.578125 746.675781 290.6875 746.304688 290.761719 C 745.933594 290.835938 745.558594 290.871094 745.175781 290.871094 Z M 745.175781 290.871094 "
     fill-opacity="1"
     fill-rule="nonzero"
     id="path15" />
  <path
     stroke-linecap="butt"
     transform="matrix(0, 7.705265, -7.705265, 0, 829.473269, 23.114448)"
     fill="none"
     stroke-linejoin="miter"
     d="M 26.732786 16.500059 C 26.839247 16.638966 26.949764 16.774831 27.06383 16.907654 C 27.177896 17.03997 27.29551 17.169244 27.41718 17.295477 C 27.53885 17.421203 27.663562 17.54338 27.792329 17.662008 C 27.921097 17.780636 28.052906 17.895716 28.187757 18.00674 C 28.323115 18.118271 28.461008 18.225239 28.602449 18.328658 C 28.743891 18.431571 28.887867 18.530935 29.034885 18.625736 C 29.181903 18.720537 29.331456 18.811283 29.483543 18.897973 C 29.636138 18.984156 29.790253 19.066283 29.94741 19.143341 C 30.10406 19.220906 30.263245 19.293908 30.424458 19.362347 C 30.585164 19.430786 30.748405 19.494663 30.913166 19.55347 C 31.077421 19.612784 31.243703 19.667029 31.412013 19.716204 C 31.579817 19.765886 31.748634 19.810498 31.918972 19.850041 C 32.08931 19.890091 32.261169 19.925071 32.433535 19.954981 C 32.605901 19.984892 32.778774 20.009733 32.95266 20.030011 C 33.126547 20.049783 33.300941 20.064991 33.475335 20.075131 C 33.650235 20.084763 33.825136 20.089832 34.000037 20.089832 C 34.174937 20.089832 34.349838 20.084763 34.524739 20.075131 C 34.699133 20.064991 34.873526 20.049783 35.047413 20.030011 C 35.2213 20.009733 35.394173 19.984892 35.566539 19.954981 C 35.738905 19.925071 35.910257 19.890091 36.081102 19.850041 C 36.25144 19.810498 36.420257 19.765886 36.58806 19.716204 C 36.755863 19.667029 36.922146 19.612784 37.086907 19.55347 C 37.251669 19.494663 37.414909 19.430786 37.575615 19.362347 C 37.736828 19.293908 37.896013 19.220906 38.052663 19.143341 C 38.20982 19.066283 38.363936 18.984156 38.51653 18.897973 C 38.668618 18.811283 38.818171 18.720537 38.965189 18.625736 C 39.112207 18.530935 39.256183 18.431571 39.397624 18.328658 C 39.538559 18.225239 39.676958 18.118271 39.812316 18.00674 C 39.947167 17.895716 40.078977 17.780636 40.207744 17.662008 C 40.336005 17.54338 40.461223 17.421203 40.582893 17.295477 C 40.704563 17.169244 40.822178 17.03997 40.936243 16.907654 C 41.050309 16.774831 41.160826 16.638966 41.26678 16.500059 "
     stroke="#ffffff"
     stroke-width="0.5"
     stroke-opacity="1"
     stroke-miterlimit="4"
     id="path16" />
  <g
     clip-path="url(#e934e56f2f)"
     id="g17">
    <path
       stroke-linecap="butt"
       transform="matrix(0, -7.705265, 7.705265, 0, 20.420333, 547.072579)"
       fill="none"
       stroke-linejoin="miter"
       d="M -0.000212762 2.000152 C 0.131089 2.000152 0.261378 1.986971 0.390145 1.961623 C 0.518913 1.935768 0.644132 1.898253 0.765295 1.847557 C 0.886458 1.797368 1.002044 1.736026 1.11104 1.663024 C 1.220543 1.590022 1.321428 1.506881 1.414202 1.414108 C 1.506975 1.321334 1.590116 1.220449 1.663118 1.110946 C 1.73612 1.00195 1.797462 0.886871 1.847651 0.765201 C 1.89784 0.644037 1.935862 0.518819 1.961717 0.390051 C 1.987065 0.261284 2.000246 0.131502 2.000246 0.000200157 M 66.000212 0.000200157 C 66.000212 0.131502 66.012886 0.261284 66.038234 0.390051 C 66.064089 0.518819 66.102111 0.644037 66.1523 0.765201 C 66.202489 0.886871 66.264338 1.00195 66.336833 1.110946 C 66.409835 1.220449 66.492976 1.321334 66.585749 1.414108 C 66.678523 1.506881 66.779914 1.590022 66.888911 1.663024 C 66.997907 1.736026 67.113493 1.797368 67.234656 1.847557 C 67.355819 1.898253 67.481038 1.935768 67.609806 1.961623 C 67.738573 1.986971 67.868861 2.000152 68.000164 2.000152 M 68.000164 102.99998 C 67.868861 102.99998 67.738573 103.012654 67.609806 103.038509 C 67.481038 103.063857 67.355819 103.101879 67.234656 103.152068 C 67.113493 103.202256 66.997907 103.264105 66.888911 103.337107 C 66.779914 103.410109 66.678523 103.492744 66.585749 103.586024 C 66.492976 103.678798 66.409835 103.779682 66.336833 103.888678 C 66.264338 103.998181 66.202489 104.113261 66.1523 104.234424 C 66.102111 104.356094 66.064089 104.480806 66.038234 104.609573 C 66.012886 104.738848 66.000212 104.868629 66.000212 104.999931 M 2.000246 104.999931 C 2.000246 104.868629 1.987065 104.738848 1.961717 104.609573 C 1.935862 104.480806 1.89784 104.356094 1.847651 104.234424 C 1.797462 104.113261 1.73612 103.998181 1.663118 103.888678 C 1.590116 103.779682 1.506975 103.678798 1.414202 103.586024 C 1.321428 103.492744 1.220543 103.410109 1.11104 103.337107 C 1.002044 103.264105 0.886458 103.202256 0.765295 103.152068 C 0.644132 103.101879 0.518913 103.063857 0.390145 103.038509 C 0.261378 103.012654 0.131089 102.99998 -0.000212762 102.99998 "
       stroke="#ffffff"
       stroke-width="0.5"
       stroke-opacity="1"
       stroke-miterlimit="4"
       id="path17" />
  </g>
</svg>
