<?xml version="1.0" encoding="UTF-8" standalone="no"?>
<svg
   width="566"
   zoomAndPan="magnify"
   viewBox="0 0 425.25 566.999983"
   height="755"
   preserveAspectRatio="xMidYMid meet"
   version="1.0"
   id="svg12"
   sodipodi:docname="Football_pitch_right3.svg"
   inkscape:version="1.3.2 (091e20e, 2023-11-25)"
   xmlns:inkscape="http://www.inkscape.org/namespaces/inkscape"
   xmlns:sodipodi="http://sodipodi.sourceforge.net/DTD/sodipodi-0.dtd"
   xmlns="http://www.w3.org/2000/svg"
   xmlns:svg="http://www.w3.org/2000/svg">
  <sodipodi:namedview
     id="namedview12"
     pagecolor="#ffffff"
     bordercolor="#000000"
     borderopacity="0.25"
     inkscape:showpageshadow="2"
     inkscape:pageopacity="0.0"
     inkscape:pagecheckerboard="0"
     inkscape:deskcolor="#d1d1d1"
     inkscape:zoom="1.0649007"
     inkscape:cx="263.87438"
     inkscape:cy="478.91791"
     inkscape:window-width="1440"
     inkscape:window-height="847"
     inkscape:window-x="0"
     inkscape:window-y="25"
     inkscape:window-maximized="0"
     inkscape:current-layer="svg12" />
  <defs
     id="defs2">
    <clipPath
       id="cabaf66187">
      <path
         d="M 0 0.5 L 424.5 0.5 L 424.5 566.5 L 0 566.5 Z M 0 0.5 "
         clip-rule="nonzero"
         id="path1" />
    </clipPath>
    <clipPath
       id="955ae604ea">
      <path
         d="M 0 1 L 424.5 1 L 424.5 566.5 L 0 566.5 Z M 0 1 "
         clip-rule="nonzero"
         id="path2" />
    </clipPath>
  </defs>
  <g
     clip-path="url(#cabaf66187)"
     id="g3">
    <path
       fill="#3f8977"
       d="M 436.148438 570.710938 L 436.148438 0.496094 L -419.171875 0.496094 L -419.171875 570.710938 Z M 436.148438 570.710938 "
       fill-opacity="1"
       fill-rule="nonzero"
       id="path3"
       style="fill:#4d4d4d" />
  </g>
  <path
     stroke-linecap="butt"
     transform="matrix(0, -7.705582, -7.705582, 0, 413.030502, 547.593587)"
     fill="none"
     stroke-linejoin="miter"
     d="M -0.000021137 -0.0000970851 L 68.000093 -0.0000970851 L 68.000093 104.999879 L -0.000021137 104.999879 Z M -0.000021137 -0.0000970851 "
     stroke="#ffffff"
     stroke-width="0.5"
     stroke-opacity="1"
     stroke-miterlimit="4"
     id="path4" />
  <path
     stroke-linecap="butt"
     transform="matrix(0, -7.705582, -7.705582, 0, 413.030502, 547.593587)"
     fill="none"
     stroke-linejoin="miter"
     d="M -0.000021137 52.499891 L 68.000093 52.499891 "
     stroke="#ffffff"
     stroke-width="0.5"
     stroke-opacity="1"
     stroke-miterlimit="4"
     id="path5" />
  <path
     stroke-linecap="butt"
     transform="matrix(0, -7.705582, -7.705582, 0, 413.030502, 547.593587)"
     fill="none"
     stroke-linejoin="miter"
     d="M 43.150008 52.499891 C 43.150008 52.649944 43.146459 52.799491 43.138855 52.949038 C 43.131758 53.098584 43.120606 53.247624 43.105904 53.396663 C 43.091203 53.545703 43.072953 53.694236 43.051155 53.842769 C 43.02885 53.990794 43.003503 54.138313 42.974101 54.284818 C 42.945205 54.43183 42.912254 54.577828 42.875755 54.723319 C 42.839255 54.868304 42.799714 55.012781 42.756117 55.156244 C 42.712521 55.299201 42.665376 55.44165 42.615189 55.582579 C 42.564495 55.723507 42.51076 55.863422 42.453476 56.001309 C 42.396192 56.139703 42.335359 56.276577 42.271485 56.411929 C 42.207611 56.547281 42.140188 56.681113 42.069724 56.813424 C 41.998752 56.945227 41.925246 57.07551 41.848192 57.204272 C 41.771137 57.332528 41.691041 57.458755 41.607904 57.583462 C 41.524766 57.708169 41.438586 57.830341 41.349365 57.950485 C 41.260144 58.071136 41.167882 58.188745 41.073084 58.304834 C 40.978287 58.420416 40.880448 58.53397 40.779567 58.644989 C 40.679194 58.755502 40.575778 58.863986 40.469828 58.969936 C 40.364385 59.075886 40.255901 59.179302 40.144881 59.279675 C 40.033862 59.380049 39.920308 59.477888 39.804726 59.573192 C 39.689144 59.66799 39.571028 59.760252 39.450884 59.849473 C 39.330232 59.938694 39.20806 60.024874 39.083354 60.108012 C 38.959154 60.191149 38.83242 60.271245 38.704164 60.3483 C 38.575402 60.425355 38.445119 60.498861 38.313315 60.569325 C 38.181005 60.640296 38.04768 60.707719 37.912328 60.771593 C 37.776975 60.835467 37.640102 60.8963 37.501708 60.953584 C 37.363314 61.010868 37.223399 61.064603 37.082471 61.115297 C 36.941542 61.165484 36.7996 61.212629 36.656136 61.256225 C 36.512673 61.299315 36.368702 61.339363 36.223211 61.375863 C 36.078227 61.412362 35.931722 61.444806 35.785217 61.474209 C 35.638205 61.503611 35.490686 61.528958 35.342661 61.550756 C 35.194635 61.573061 35.046102 61.591311 34.897062 61.606012 C 34.748023 61.620714 34.598476 61.631866 34.448929 61.638963 C 34.299383 61.646567 34.149836 61.650116 33.999783 61.650116 C 33.850236 61.650116 33.700689 61.646567 33.551143 61.638963 C 33.401596 61.631866 33.25205 61.620714 33.10301 61.606012 C 32.95397 61.591311 32.805437 61.573061 32.657412 61.550756 C 32.509386 61.528958 32.361867 61.503611 32.214855 61.474209 C 32.067843 61.444806 31.921845 61.412362 31.776861 61.375863 C 31.63137 61.339363 31.487399 61.299315 31.343936 61.256225 C 31.200473 61.212629 31.05853 61.165484 30.917602 61.115297 C 30.776673 61.064603 30.636758 61.010868 30.498364 60.953584 C 30.35997 60.8963 30.223097 60.835467 30.087745 60.771593 C 29.952392 60.707719 29.818561 60.640296 29.686757 60.569325 C 29.554446 60.498861 29.424163 60.425355 29.295908 60.3483 C 29.167653 60.271245 29.040918 60.191149 28.916718 60.108012 C 28.792012 60.024874 28.66984 59.938694 28.549189 59.849473 C 28.429044 59.760252 28.310928 59.66799 28.195346 59.573192 C 28.079764 59.477888 27.96621 59.380049 27.855191 59.279675 C 27.744172 59.179302 27.635687 59.075886 27.529737 58.969936 C 27.424294 58.863986 27.320879 58.755502 27.220505 58.644989 C 27.119624 58.53397 27.021785 58.420416 26.926988 58.304834 C 26.832191 58.188745 26.739928 58.071136 26.650707 57.950485 C 26.561486 57.830341 26.475307 57.708169 26.392169 57.583462 C 26.309031 57.458755 26.228935 57.332528 26.15188 57.204272 C 26.074826 57.07551 26.000813 56.945227 25.930349 56.813424 C 25.859884 56.681113 25.792462 56.547281 25.728587 56.411929 C 25.664713 56.276577 25.603881 56.139703 25.546597 56.001309 C 25.489313 55.863422 25.43507 55.723507 25.384884 55.582579 C 25.33419 55.44165 25.287552 55.299201 25.243955 55.156244 C 25.200358 55.012781 25.160817 54.868304 25.124318 54.723319 C 25.087818 54.577828 25.054867 54.43183 25.025972 54.284818 C 24.996569 54.138313 24.971222 53.990794 24.948917 53.842769 C 24.927119 53.694236 24.908869 53.545703 24.894168 53.396663 C 24.879467 53.247624 24.868314 53.098584 24.861217 52.949038 C 24.853613 52.799491 24.850064 52.649944 24.850064 52.499891 C 24.850064 52.350344 24.853613 52.200797 24.861217 52.051251 C 24.868314 51.901704 24.879467 51.752158 24.894168 51.603118 C 24.908869 51.454078 24.927119 51.305546 24.948917 51.15752 C 24.971222 51.009494 24.996569 50.861975 25.025972 50.714963 C 25.054867 50.567951 25.087818 50.421953 25.124318 50.276969 C 25.160817 50.131478 25.200358 49.987001 25.243955 49.844044 C 25.287552 49.700581 25.33419 49.558638 25.384884 49.417203 C 25.43507 49.276274 25.489313 49.136866 25.546597 48.998472 C 25.603881 48.860078 25.664713 48.723205 25.728587 48.587853 C 25.792462 48.4525 25.859884 48.318669 25.930349 48.186865 C 26.000813 48.054554 26.074826 47.924271 26.15188 47.796016 C 26.228935 47.667761 26.309031 47.541026 26.392169 47.41632 C 26.475307 47.29212 26.561486 47.169441 26.650707 47.049297 C 26.739928 46.929152 26.832191 46.811036 26.926988 46.695454 C 27.021785 46.579365 27.119624 46.466318 27.220505 46.355299 C 27.320879 46.24428 27.424294 46.135795 27.529737 46.029845 C 27.635687 45.923895 27.744172 45.820987 27.855191 45.720106 C 27.96621 45.619732 28.079764 45.521893 28.195346 45.427096 C 28.310928 45.331792 28.429044 45.240036 28.549189 45.150815 C 28.66984 45.061594 28.792012 44.975415 28.916718 44.892277 C 29.040918 44.808632 29.167653 44.728536 29.295908 44.651988 C 29.424163 44.574934 29.554446 44.500921 29.686757 44.430457 C 29.818561 44.359992 29.952392 44.29257 30.087745 44.228695 C 30.223097 44.164314 30.35997 44.103989 30.498364 44.046705 C 30.636758 43.989421 30.776673 43.935178 30.917602 43.884992 C 31.05853 43.834298 31.200473 43.78766 31.343936 43.744063 C 31.487399 43.700466 31.63137 43.660418 31.776861 43.624426 C 31.921845 43.587926 32.067843 43.554975 32.214855 43.525573 C 32.361867 43.496677 32.509386 43.470824 32.657412 43.449025 C 32.805437 43.427227 32.95397 43.408977 33.10301 43.394276 C 33.25205 43.379575 33.401596 43.368422 33.551143 43.360818 C 33.700689 43.353721 33.850236 43.350172 33.999783 43.350172 C 34.149836 43.350172 34.299383 43.353721 34.448929 43.360818 C 34.598476 43.368422 34.748023 43.379575 34.897062 43.394276 C 35.046102 43.408977 35.194635 43.427227 35.342661 43.449025 C 35.490686 43.470824 35.638205 43.496677 35.785217 43.525573 C 35.931722 43.554975 36.078227 43.587926 36.223211 43.624426 C 36.368702 43.660418 36.512673 43.700466 36.656136 43.744063 C 36.7996 43.78766 36.941542 43.834298 37.082471 43.884992 C 37.223399 43.935178 37.363314 43.989421 37.501708 44.046705 C 37.640102 44.103989 37.776975 44.164314 37.912328 44.228695 C 38.04768 44.29257 38.181005 44.359992 38.313315 44.430457 C 38.445119 44.500921 38.575402 44.574934 38.704164 44.651988 C 38.83242 44.728536 38.959154 44.808632 39.083354 44.892277 C 39.20806 44.975415 39.330232 45.061594 39.450884 45.150815 C 39.571028 45.240036 39.689144 45.331792 39.804726 45.427096 C 39.920308 45.521893 40.033862 45.619732 40.144881 45.720106 C 40.255901 45.820987 40.364385 45.923895 40.469828 46.029845 C 40.575778 46.135795 40.679194 46.24428 40.779567 46.355299 C 40.880448 46.466318 40.978287 46.579365 41.073084 46.695454 C 41.167882 46.811036 41.260144 46.929152 41.349365 47.049297 C 41.438586 47.169441 41.524766 47.29212 41.607904 47.41632 C 41.691041 47.541026 41.771137 47.667761 41.848192 47.796016 C 41.925246 47.924271 41.998752 48.054554 42.069724 48.186865 C 42.140188 48.318669 42.207611 48.4525 42.271485 48.587853 C 42.335359 48.723205 42.396192 48.860078 42.453476 48.998472 C 42.51076 49.136866 42.564495 49.276274 42.615189 49.417203 C 42.665376 49.558638 42.712521 49.700581 42.756117 49.844044 C 42.799714 49.987001 42.839255 50.131478 42.875755 50.276969 C 42.912254 50.421953 42.945205 50.567951 42.974101 50.714963 C 43.003503 50.861975 43.02885 51.009494 43.051155 51.15752 C 43.072953 51.305546 43.091203 51.454078 43.105904 51.603118 C 43.120606 51.752158 43.131758 51.901704 43.138855 52.051251 C 43.146459 52.200797 43.150008 52.350344 43.150008 52.499891 Z M 43.150008 52.499891 "
     stroke="#ffffff"
     stroke-width="0.5"
     stroke-opacity="1"
     stroke-miterlimit="4"
     id="path6" />
  <path
     fill="#ffffff"
     d="M 8.488281 279.824219 C 8.109375 279.824219 7.730469 279.863281 7.359375 279.9375 C 6.988281 280.007812 6.625 280.121094 6.277344 280.265625 C 5.925781 280.410156 5.59375 280.585938 5.277344 280.796875 C 4.960938 281.007812 4.667969 281.25 4.402344 281.515625 C 4.132812 281.785156 3.894531 282.078125 3.683594 282.394531 C 3.472656 282.707031 3.292969 283.042969 3.148438 283.390625 C 3.003906 283.742188 2.894531 284.105469 2.820312 284.476562 C 2.746094 284.847656 2.707031 285.222656 2.707031 285.605469 C 2.707031 285.984375 2.746094 286.359375 2.820312 286.730469 C 2.894531 287.101562 3.003906 287.464844 3.148438 287.816406 C 3.292969 288.164062 3.472656 288.5 3.683594 288.816406 C 3.894531 289.128906 4.132812 289.421875 4.402344 289.691406 C 4.667969 289.957031 4.960938 290.199219 5.277344 290.410156 C 5.59375 290.621094 5.925781 290.796875 6.277344 290.941406 C 6.625 291.089844 6.988281 291.199219 7.359375 291.273438 C 7.730469 291.347656 8.109375 291.382812 8.488281 291.382812 C 8.867188 291.382812 9.242188 291.347656 9.613281 291.273438 C 9.988281 291.199219 10.347656 291.089844 10.699219 290.941406 C 11.050781 290.796875 11.382812 290.621094 11.699219 290.410156 C 12.015625 290.199219 12.304688 289.957031 12.574219 289.691406 C 12.84375 289.421875 13.082031 289.128906 13.292969 288.816406 C 13.503906 288.5 13.679688 288.164062 13.828125 287.816406 C 13.972656 287.464844 14.082031 287.101562 14.15625 286.730469 C 14.230469 286.359375 14.265625 285.984375 14.265625 285.605469 C 14.265625 285.222656 14.230469 284.847656 14.15625 284.476562 C 14.082031 284.105469 13.972656 283.742188 13.828125 283.390625 C 13.679688 283.042969 13.503906 282.707031 13.292969 282.394531 C 13.082031 282.078125 12.84375 281.785156 12.574219 281.515625 C 12.304688 281.25 12.015625 281.007812 11.699219 280.796875 C 11.382812 280.585938 11.050781 280.410156 10.699219 280.265625 C 10.347656 280.121094 9.988281 280.007812 9.613281 279.9375 C 9.242188 279.863281 8.867188 279.824219 8.488281 279.824219 Z M 8.488281 279.824219 "
     fill-opacity="1"
     fill-rule="nonzero"
     id="path7" />
  <path
     stroke-linecap="butt"
     transform="matrix(0, -7.705582, -7.705582, 0, 413.030502, 547.593587)"
     fill="none"
     stroke-linejoin="miter"
     d="M 13.839885 -0.0000970851 L 13.839885 16.500218 L 54.160188 16.500218 L 54.160188 -0.0000970851 "
     stroke="#ffffff"
     stroke-width="0.5"
     stroke-opacity="1"
     stroke-miterlimit="4"
     id="path8" />
  <path
     stroke-linecap="butt"
     transform="matrix(0, -7.705582, -7.705582, 0, 413.030502, 547.593587)"
     fill="none"
     stroke-linejoin="miter"
     d="M 24.839926 -0.0000970851 L 24.839926 5.500177 L 43.160147 5.500177 L 43.160147 -0.0000970851 "
     stroke="#ffffff"
     stroke-width="0.5"
     stroke-opacity="1"
     stroke-miterlimit="4"
     id="path9" />
  <path
     fill="#ffffff"
     d="M 328.730469 279.824219 C 328.351562 279.824219 327.976562 279.863281 327.605469 279.9375 C 327.230469 280.007812 326.871094 280.121094 326.519531 280.265625 C 326.167969 280.410156 325.835938 280.585938 325.519531 280.796875 C 325.207031 281.007812 324.914062 281.25 324.644531 281.515625 C 324.375 281.785156 324.136719 282.078125 323.925781 282.394531 C 323.714844 282.707031 323.539062 283.042969 323.390625 283.390625 C 323.246094 283.742188 323.136719 284.105469 323.0625 284.476562 C 322.988281 284.847656 322.953125 285.222656 322.953125 285.605469 C 322.953125 285.984375 322.988281 286.359375 323.0625 286.730469 C 323.136719 287.101562 323.246094 287.464844 323.390625 287.816406 C 323.539062 288.164062 323.714844 288.5 323.925781 288.816406 C 324.136719 289.128906 324.375 289.421875 324.644531 289.691406 C 324.914062 289.957031 325.207031 290.199219 325.519531 290.410156 C 325.835938 290.621094 326.167969 290.796875 326.519531 290.941406 C 326.871094 291.089844 327.230469 291.199219 327.605469 291.273438 C 327.976562 291.347656 328.351562 291.382812 328.730469 291.382812 C 329.109375 291.382812 329.488281 291.347656 329.859375 291.273438 C 330.230469 291.199219 330.59375 291.089844 330.941406 290.941406 C 331.292969 290.796875 331.625 290.621094 331.941406 290.410156 C 332.257812 290.199219 332.550781 289.957031 332.816406 289.691406 C 333.085938 289.421875 333.324219 289.128906 333.535156 288.816406 C 333.746094 288.5 333.925781 288.164062 334.070312 287.816406 C 334.214844 287.464844 334.324219 287.101562 334.398438 286.730469 C 334.472656 286.359375 334.511719 285.984375 334.511719 285.605469 C 334.511719 285.222656 334.472656 284.847656 334.398438 284.476562 C 334.324219 284.105469 334.214844 283.742188 334.070312 283.390625 C 333.925781 283.042969 333.746094 282.707031 333.535156 282.394531 C 333.324219 282.078125 333.085938 281.785156 332.816406 281.515625 C 332.550781 281.25 332.257812 281.007812 331.941406 280.796875 C 331.625 280.585938 331.292969 280.410156 330.941406 280.265625 C 330.59375 280.121094 330.230469 280.007812 329.859375 279.9375 C 329.488281 279.863281 329.109375 279.824219 328.730469 279.824219 Z M 328.730469 279.824219 "
     fill-opacity="1"
     fill-rule="nonzero"
     id="path10" />
  <path
     stroke-linecap="butt"
     transform="matrix(0, -7.705582, -7.705582, 0, 413.030502, 547.593587)"
     fill="none"
     stroke-linejoin="miter"
     d="M 26.732831 16.500218 C 26.839288 16.639119 26.9498 16.774978 27.063861 16.907289 C 27.177922 17.040106 27.295532 17.169375 27.417197 17.295096 C 27.538862 17.421324 27.663569 17.543495 27.792331 17.662119 C 27.921093 17.780742 28.052897 17.895817 28.187742 18.006837 C 28.323094 18.117856 28.461488 18.225327 28.602417 18.328742 C 28.743853 18.43165 28.887823 18.53101 29.034835 18.625807 C 29.181847 18.720605 29.331394 18.811347 29.483475 18.897526 C 29.636063 18.984212 29.790679 19.065829 29.947323 19.143391 C 30.103967 19.220952 30.263145 19.293951 30.424351 19.362388 C 30.585557 19.430825 30.748284 19.494699 30.913039 19.553503 C 31.077794 19.612308 31.244069 19.667057 31.411866 19.71623 C 31.579662 19.76591 31.748979 19.810521 31.91931 19.850062 C 32.089641 19.89011 32.260986 19.925089 32.433345 19.954998 C 32.605704 19.984907 32.779077 20.009747 32.952449 20.030025 C 33.126329 20.049795 33.300716 20.065004 33.475609 20.075142 C 33.649996 20.084774 33.824889 20.089844 33.999783 20.089844 C 34.175183 20.089844 34.34957 20.084774 34.524463 20.075142 C 34.699357 20.065004 34.873236 20.049795 35.047116 20.030025 C 35.220996 20.009747 35.394368 19.984907 35.566727 19.954998 C 35.739086 19.925089 35.910431 19.89011 36.080762 19.850062 C 36.251093 19.810521 36.42041 19.76591 36.588207 19.71623 C 36.756003 19.667057 36.922278 19.612308 37.087033 19.553503 C 37.251788 19.494699 37.414515 19.430825 37.575721 19.362388 C 37.736927 19.293951 37.895599 19.220952 38.052749 19.143391 C 38.209393 19.065829 38.364009 18.984212 38.516091 18.897526 C 38.668679 18.811347 38.818225 18.720605 38.965237 18.625807 C 39.112249 18.53101 39.25622 18.43165 39.397655 18.328742 C 39.538584 18.225327 39.676978 18.117856 39.81233 18.006837 C 39.947176 17.895817 40.078979 17.780742 40.207742 17.662119 C 40.335997 17.543495 40.46121 17.421324 40.582875 17.295096 C 40.704541 17.169375 40.82215 17.040106 40.936211 16.907289 C 41.050272 16.774978 41.160784 16.639119 41.266734 16.500218 "
     stroke="#ffffff"
     stroke-width="0.5"
     stroke-opacity="1"
     stroke-miterlimit="4"
     id="path11" />
  <g
     clip-path="url(#955ae604ea)"
     id="g12">
    <path
       stroke-linecap="butt"
       transform="matrix(0, -7.705582, -7.705582, 0, 413.030502, 547.593587)"
       fill="none"
       stroke-linejoin="miter"
       d="M -0.000021137 1.999772 C 0.131276 1.999772 0.261559 1.987099 0.390321 1.961752 C 0.519083 1.935898 0.64379 1.897878 0.765455 1.847691 C 0.886613 1.797504 1.002195 1.735658 1.111186 1.663165 C 1.220178 1.590166 1.321565 1.507029 1.414335 1.414259 C 1.507105 1.321489 1.589735 1.220102 1.662734 1.11111 C 1.735734 1.002119 1.79758 0.886537 1.847767 0.765379 C 1.897954 0.644221 1.935974 0.519007 1.961321 0.390245 C 1.987175 0.261483 1.999848 0.1312 1.999848 -0.0000970851 M 66.000224 -0.0000970851 C 66.000224 0.1312 66.012898 0.261483 66.038245 0.390245 C 66.064098 0.519007 66.102119 0.644221 66.152306 0.765379 C 66.202492 0.886537 66.264339 1.002119 66.336831 1.11111 C 66.40983 1.220102 66.492968 1.321489 66.585737 1.414259 C 66.678507 1.507029 66.779894 1.590166 66.888886 1.663165 C 66.997878 1.735658 67.113459 1.797504 67.234618 1.847691 C 67.355776 1.897878 67.480989 1.935898 67.609751 1.961752 C 67.738514 1.987099 67.868797 1.999772 68.000093 1.999772 M 68.000093 103.000009 C 67.868797 103.000009 67.738514 103.012683 67.609751 103.038537 C 67.480989 103.063884 67.355776 103.101904 67.234618 103.152091 C 67.113459 103.202277 66.997878 103.264124 66.888886 103.337123 C 66.779894 103.410122 66.678507 103.492753 66.585737 103.586029 C 66.492968 103.678799 66.40983 103.77968 66.336831 103.888671 C 66.264339 103.99817 66.202492 104.113245 66.152306 104.234403 C 66.102119 104.356068 66.064098 104.480774 66.038245 104.610043 C 66.012898 104.738806 66.000224 104.868582 66.000224 104.999879 M 1.999848 104.999879 C 1.999848 104.868582 1.987175 104.738806 1.961321 104.610043 C 1.935974 104.480774 1.897954 104.356068 1.847767 104.234403 C 1.79758 104.113245 1.735734 103.99817 1.662734 103.888671 C 1.589735 103.77968 1.507105 103.678799 1.414335 103.586029 C 1.321565 103.492753 1.220178 103.410122 1.111186 103.337123 C 1.002195 103.264124 0.886613 103.202277 0.765455 103.152091 C 0.64379 103.101904 0.519083 103.063884 0.390321 103.038537 C 0.261559 103.012683 0.131276 103.000009 -0.000021137 103.000009 "
       stroke="#ffffff"
       stroke-width="0.5"
       stroke-opacity="1"
       stroke-miterlimit="4"
       id="path12" />
  </g>
</svg>
