<?xml version="1.0" encoding="UTF-8" standalone="no"?>
<svg
   width="566"
   zoomAndPan="magnify"
   viewBox="0 0 425.25 566.999983"
   height="755"
   preserveAspectRatio="xMidYMid meet"
   version="1.0"
   id="svg13"
   sodipodi:docname="Football_pitch_left3.svg"
   inkscape:version="1.3.2 (091e20e, 2023-11-25)"
   xmlns:inkscape="http://www.inkscape.org/namespaces/inkscape"
   xmlns:sodipodi="http://sodipodi.sourceforge.net/DTD/sodipodi-0.dtd"
   xmlns="http://www.w3.org/2000/svg"
   xmlns:svg="http://www.w3.org/2000/svg">
  <sodipodi:namedview
     id="namedview13"
     pagecolor="#ffffff"
     bordercolor="#000000"
     borderopacity="0.25"
     inkscape:showpageshadow="2"
     inkscape:pageopacity="0.0"
     inkscape:pagecheckerboard="0"
     inkscape:deskcolor="#d1d1d1"
     inkscape:zoom="1.0649007"
     inkscape:cx="325.85199"
     inkscape:cy="75.124378"
     inkscape:window-width="1440"
     inkscape:window-height="847"
     inkscape:window-x="0"
     inkscape:window-y="25"
     inkscape:window-maximized="0"
     inkscape:current-layer="svg13" />
  <defs
     id="defs4">
    <clipPath
       id="7a6652260b">
      <path
         d="M 0 0.5 L 424.5 0.5 L 424.5 566.5 L 0 566.5 Z M 0 0.5 "
         clip-rule="nonzero"
         id="path1" />
    </clipPath>
    <clipPath
       id="fd86da6c26">
      <path
         d="M 9 19 L 424.5 19 L 424.5 548 L 9 548 Z M 9 19 "
         clip-rule="nonzero"
         id="path2" />
    </clipPath>
    <clipPath
       id="beb70cee33">
      <path
         d="M 323 191 L 424.5 191 L 424.5 376 L 323 376 Z M 323 191 "
         clip-rule="nonzero"
         id="path3" />
    </clipPath>
    <clipPath
       id="80a75fe4cb">
      <path
         d="M 0 0.5 L 424.5 0.5 L 424.5 566.5 L 0 566.5 Z M 0 0.5 "
         clip-rule="nonzero"
         id="path4" />
    </clipPath>
  </defs>
  <g
     clip-path="url(#7a6652260b)"
     id="g4">
    <rect
       x="-42.525"
       width="510.3"
       fill="#3f8977"
       y="-56.699998"
       height="680.39998"
       fill-opacity="1"
       id="rect4"
       style="fill:#4d4d4d" />
  </g>
  <g
     clip-path="url(#fd86da6c26)"
     id="g5">
    <path
       stroke-linecap="butt"
       transform="matrix(0, -7.705582, -7.705582, 0, 820.500842, 545.45107)"
       fill="none"
       stroke-linejoin="miter"
       d="M 0.000240236 0.000109313 L 67.999848 0.000109313 L 67.999848 105.000085 L 0.000240236 105.000085 Z M 0.000240236 0.000109313 "
       stroke="#ffffff"
       stroke-width="0.5"
       stroke-opacity="1"
       stroke-miterlimit="4"
       id="path5" />
  </g>
  <path
     stroke-linecap="butt"
     transform="matrix(0, -7.705582, -7.705582, 0, 820.500842, 545.45107)"
     fill="none"
     stroke-linejoin="miter"
     d="M 0.000240236 52.500097 L 67.999848 52.500097 "
     stroke="#ffffff"
     stroke-width="0.5"
     stroke-opacity="1"
     stroke-miterlimit="4"
     id="path6" />
  <g
     clip-path="url(#beb70cee33)"
     id="g7">
    <path
       stroke-linecap="butt"
       transform="matrix(0, -7.705582, -7.705582, 0, 820.500842, 545.45107)"
       fill="none"
       stroke-linejoin="miter"
       d="M 43.149762 52.500097 C 43.149762 52.649644 43.146214 52.79919 43.139117 52.948737 C 43.131513 53.098284 43.120867 53.24783 43.106166 53.39687 C 43.091465 53.54591 43.072708 53.694442 43.05091 53.842468 C 43.029111 53.990494 43.003257 54.138013 42.974362 54.285025 C 42.94496 54.432037 42.912009 54.578035 42.876016 54.723019 C 42.839517 54.86851 42.799468 55.012987 42.755872 55.155944 C 42.712782 55.299407 42.665637 55.44135 42.614943 55.582785 C 42.564756 55.723714 42.511021 55.863122 42.453737 56.001516 C 42.395946 56.13991 42.33562 56.276783 42.271746 56.412135 C 42.207365 56.547488 42.139943 56.681319 42.069478 56.813123 C 41.999014 56.945434 41.925001 57.075717 41.848453 57.203972 C 41.771399 57.332227 41.691303 57.458962 41.608165 57.583668 C 41.52452 57.707868 41.438341 57.830547 41.34912 57.950691 C 41.259899 58.070835 41.168143 58.188952 41.072839 58.304534 C 40.978041 58.420622 40.880202 58.533669 40.779829 58.644689 C 40.678948 58.755708 40.57604 58.864193 40.47009 58.970143 C 40.36414 59.076093 40.255655 59.179001 40.144636 59.279882 C 40.033616 59.380255 39.920569 59.478094 39.804481 59.572892 C 39.688899 59.668196 39.570782 59.759952 39.450638 59.849173 C 39.330494 59.938394 39.207815 60.024573 39.083615 60.107711 C 38.958909 60.191356 38.832681 60.271452 38.703919 60.347999 C 38.575664 60.425054 38.445381 60.499067 38.31307 60.569531 C 38.181266 60.639996 38.047435 60.707418 37.912082 60.771292 C 37.77673 60.835674 37.639857 60.895999 37.501463 60.953283 C 37.363069 61.010567 37.223661 61.064809 37.082732 61.114996 C 36.941297 61.16569 36.799354 61.212328 36.655891 61.255925 C 36.512934 61.299522 36.368457 61.33957 36.223473 61.375562 C 36.077982 61.412062 35.931984 61.445013 35.784972 61.474415 C 35.63796 61.50331 35.490948 61.529164 35.342415 61.550963 C 35.194389 61.572761 35.045857 61.591011 34.896817 61.605712 C 34.747777 61.620413 34.598737 61.631566 34.449191 61.63917 C 34.299644 61.646267 34.149591 61.649815 34.000044 61.649815 C 33.850497 61.649815 33.700444 61.646267 33.550897 61.63917 C 33.401351 61.631566 33.252311 61.620413 33.103271 61.605712 C 32.954232 61.591011 32.805699 61.572761 32.657166 61.550963 C 32.50914 61.529164 32.361621 61.50331 32.215116 61.474415 C 32.068105 61.445013 31.922106 61.412062 31.776615 61.375562 C 31.631631 61.33957 31.487154 61.299522 31.343691 61.255925 C 31.200734 61.212328 31.058285 61.16569 30.917356 61.114996 C 30.776427 61.064809 30.637019 61.010567 30.498625 60.953283 C 30.360231 60.895999 30.223358 60.835674 30.088006 60.771292 C 29.952654 60.707418 29.818822 60.639996 29.686511 60.569531 C 29.554707 60.499067 29.424424 60.425054 29.296169 60.347999 C 29.167407 60.271452 29.04118 60.191356 28.916473 60.107711 C 28.791766 60.024573 28.669594 59.938394 28.54945 59.849173 C 28.429306 59.759952 28.311189 59.668196 28.195101 59.572892 C 28.079519 59.478094 27.965965 59.380255 27.855452 59.279882 C 27.744433 59.179001 27.635948 59.076093 27.529998 58.970143 C 27.424048 58.864193 27.320633 58.755708 27.220259 58.644689 C 27.119886 58.533669 27.022047 58.420622 26.926742 58.304534 C 26.831945 58.188952 26.739682 58.070835 26.650461 57.950691 C 26.56124 57.830547 26.475061 57.707868 26.391923 57.583668 C 26.308785 57.458962 26.228689 57.332227 26.151635 57.203972 C 26.07458 57.075717 26.001074 56.945434 25.93061 56.813123 C 25.859639 56.681319 25.792723 56.547488 25.728342 56.412135 C 25.664468 56.276783 25.603635 56.13991 25.546351 56.001516 C 25.489067 55.863122 25.435332 55.723714 25.384638 55.582785 C 25.334451 55.44135 25.287306 55.299407 25.244216 55.155944 C 25.20062 55.012987 25.160572 54.86851 25.124072 54.723019 C 25.087573 54.578035 25.055129 54.432037 25.025726 54.285025 C 24.996831 54.138013 24.970977 53.990494 24.949179 53.842468 C 24.926873 53.694442 24.908624 53.54591 24.893922 53.39687 C 24.879221 53.24783 24.868575 53.098284 24.860971 52.948737 C 24.853874 52.79919 24.849819 52.649644 24.849819 52.500097 C 24.849819 52.350044 24.853874 52.200497 24.860971 52.05095 C 24.868575 51.901404 24.879221 51.752364 24.893922 51.603324 C 24.908624 51.454285 24.926873 51.305752 24.949179 51.157219 C 24.970977 51.009193 24.996831 50.861675 25.025726 50.71517 C 25.055129 50.568158 25.087573 50.42216 25.124072 50.276668 C 25.160572 50.131684 25.20062 49.987207 25.244216 49.843744 C 25.287306 49.700787 25.334451 49.558338 25.384638 49.417409 C 25.435332 49.27648 25.489067 49.136566 25.546351 48.998679 C 25.603635 48.860285 25.664468 48.723411 25.728342 48.588059 C 25.792723 48.452707 25.859639 48.318875 25.93061 48.186564 C 26.001074 48.054761 26.07458 47.924478 26.151635 47.795715 C 26.228689 47.66746 26.308785 47.541233 26.391923 47.416526 C 26.475061 47.291819 26.56124 47.169647 26.650461 47.049503 C 26.739682 46.928852 26.831945 46.811242 26.926742 46.695154 C 27.022047 46.579572 27.119886 46.466018 27.220259 46.354998 C 27.320633 46.244486 27.424048 46.136001 27.529998 46.030051 C 27.635948 45.924101 27.744433 45.820686 27.855452 45.720312 C 27.965965 45.619939 28.079519 45.5221 28.195101 45.426796 C 28.311189 45.331998 28.429306 45.239736 28.54945 45.150515 C 28.669594 45.061293 28.791766 44.975114 28.916473 44.891976 C 29.04118 44.808839 29.167407 44.728742 29.296169 44.651688 C 29.424424 44.574633 29.554707 44.501127 29.686511 44.430663 C 29.818822 44.359692 29.952654 44.292269 30.088006 44.228395 C 30.223358 44.164521 30.360231 44.103688 30.498625 44.046404 C 30.637019 43.98912 30.776427 43.935385 30.917356 43.884691 C 31.058285 43.834504 31.200734 43.787359 31.343691 43.743762 C 31.487154 43.700673 31.631631 43.660625 31.776615 43.624125 C 31.922106 43.587626 32.068105 43.555182 32.215116 43.525779 C 32.361621 43.496377 32.50914 43.47103 32.657166 43.449232 C 32.805699 43.426926 32.954232 43.408677 33.103271 43.393975 C 33.252311 43.379274 33.401351 43.368122 33.550897 43.361024 C 33.700444 43.35342 33.850497 43.349872 34.000044 43.349872 C 34.149591 43.349872 34.299644 43.35342 34.449191 43.361024 C 34.598737 43.368122 34.747777 43.379274 34.896817 43.393975 C 35.045857 43.408677 35.194389 43.426926 35.342415 43.449232 C 35.490948 43.47103 35.63796 43.496377 35.784972 43.525779 C 35.931984 43.555182 36.077982 43.587626 36.223473 43.624125 C 36.368457 43.660625 36.512934 43.700673 36.655891 43.743762 C 36.799354 43.787359 36.941297 43.834504 37.082732 43.884691 C 37.223661 43.935385 37.363069 43.98912 37.501463 44.046404 C 37.639857 44.103688 37.77673 44.164521 37.912082 44.228395 C 38.047435 44.292269 38.181266 44.359692 38.31307 44.430663 C 38.445381 44.501127 38.575664 44.574633 38.703919 44.651688 C 38.832681 44.728742 38.958909 44.808839 39.083615 44.891976 C 39.207815 44.975114 39.330494 45.061293 39.450638 45.150515 C 39.570782 45.239736 39.688899 45.331998 39.804481 45.426796 C 39.920569 45.5221 40.033616 45.619939 40.144636 45.720312 C 40.255655 45.820686 40.36414 45.924101 40.47009 46.030051 C 40.57604 46.136001 40.678948 46.244486 40.779829 46.354998 C 40.880202 46.466018 40.978041 46.579572 41.072839 46.695154 C 41.168143 46.811242 41.259899 46.928852 41.34912 47.049503 C 41.438341 47.169647 41.52452 47.291819 41.608165 47.416526 C 41.691303 47.541233 41.771399 47.66746 41.848453 47.795715 C 41.925001 47.924478 41.999014 48.054761 42.069478 48.186564 C 42.139943 48.318875 42.207365 48.452707 42.271746 48.588059 C 42.33562 48.723411 42.395946 48.860285 42.453737 48.998679 C 42.511021 49.136566 42.564756 49.27648 42.614943 49.417409 C 42.665637 49.558338 42.712782 49.700787 42.755872 49.843744 C 42.799468 49.987207 42.839517 50.131684 42.876016 50.276668 C 42.912009 50.42216 42.94496 50.568158 42.974362 50.71517 C 43.003257 50.861675 43.029111 51.009193 43.05091 51.157219 C 43.072708 51.305752 43.091465 51.454285 43.106166 51.603324 C 43.120867 51.752364 43.131513 51.901404 43.139117 52.05095 C 43.146214 52.200497 43.149762 52.350044 43.149762 52.500097 Z M 43.149762 52.500097 "
       stroke="#ffffff"
       stroke-width="0.5"
       stroke-opacity="1"
       stroke-miterlimit="4"
       id="path7" />
  </g>
  <path
     fill="#ffffff"
     d="M 415.957031 277.683594 C 415.578125 277.683594 415.203125 277.71875 414.832031 277.792969 C 414.457031 277.867188 414.097656 277.976562 413.746094 278.121094 C 413.394531 278.265625 413.0625 278.445312 412.746094 278.65625 C 412.429688 278.867188 412.140625 279.105469 411.871094 279.375 C 411.601562 279.644531 411.363281 279.933594 411.152344 280.25 C 410.941406 280.566406 410.765625 280.898438 410.617188 281.25 C 410.472656 281.601562 410.363281 281.960938 410.289062 282.332031 C 410.214844 282.707031 410.179688 283.082031 410.179688 283.460938 C 410.179688 283.839844 410.214844 284.214844 410.289062 284.589844 C 410.363281 284.960938 410.472656 285.324219 410.617188 285.671875 C 410.765625 286.023438 410.941406 286.355469 411.152344 286.671875 C 411.363281 286.988281 411.601562 287.28125 411.871094 287.546875 C 412.140625 287.816406 412.429688 288.054688 412.746094 288.265625 C 413.0625 288.476562 413.394531 288.65625 413.746094 288.800781 C 414.097656 288.945312 414.457031 289.054688 414.832031 289.128906 C 415.203125 289.203125 415.578125 289.242188 415.957031 289.242188 C 416.335938 289.242188 416.714844 289.203125 417.085938 289.128906 C 417.457031 289.054688 417.820312 288.945312 418.167969 288.800781 C 418.519531 288.65625 418.851562 288.476562 419.167969 288.265625 C 419.484375 288.054688 419.777344 287.816406 420.042969 287.546875 C 420.3125 287.28125 420.550781 286.988281 420.761719 286.671875 C 420.972656 286.355469 421.152344 286.023438 421.296875 285.671875 C 421.441406 285.324219 421.550781 284.960938 421.625 284.589844 C 421.699219 284.214844 421.738281 283.839844 421.738281 283.460938 C 421.738281 283.082031 421.699219 282.707031 421.625 282.332031 C 421.550781 281.960938 421.441406 281.601562 421.296875 281.25 C 421.152344 280.898438 420.972656 280.566406 420.761719 280.25 C 420.550781 279.933594 420.3125 279.644531 420.042969 279.375 C 419.777344 279.105469 419.484375 278.867188 419.167969 278.65625 C 418.851562 278.445312 418.519531 278.265625 418.167969 278.121094 C 417.820312 277.976562 417.457031 277.867188 417.085938 277.792969 C 416.714844 277.71875 416.335938 277.683594 415.957031 277.683594 Z M 415.957031 277.683594 "
     fill-opacity="1"
     fill-rule="nonzero"
     id="path8" />
  <path
     stroke-linecap="butt"
     transform="matrix(0, 7.705582, 7.705582, 0, 11.41479, 21.471556)"
     fill="none"
     stroke-linejoin="miter"
     d="M 13.840049 -0.0000943523 L 13.840049 16.50022 L 54.159845 16.50022 L 54.159845 -0.0000943523 "
     stroke="#ffffff"
     stroke-width="0.5"
     stroke-opacity="1"
     stroke-miterlimit="4"
     id="path9" />
  <path
     stroke-linecap="butt"
     transform="matrix(0, 7.705582, 7.705582, 0, 11.41479, 21.471556)"
     fill="none"
     stroke-linejoin="miter"
     d="M 24.84009 -0.0000943523 L 24.84009 5.50018 L 43.159804 5.50018 L 43.159804 -0.0000943523 "
     stroke="#ffffff"
     stroke-width="0.5"
     stroke-opacity="1"
     stroke-miterlimit="4"
     id="path10" />
  <path
     fill="#ffffff"
     d="M 95.714844 289.242188 C 96.09375 289.242188 96.46875 289.203125 96.839844 289.128906 C 97.214844 289.054688 97.574219 288.945312 97.925781 288.800781 C 98.277344 288.65625 98.609375 288.476562 98.925781 288.265625 C 99.238281 288.054688 99.53125 287.816406 99.800781 287.546875 C 100.070312 287.28125 100.308594 286.988281 100.519531 286.671875 C 100.730469 286.355469 100.90625 286.023438 101.054688 285.671875 C 101.199219 285.324219 101.308594 284.960938 101.382812 284.589844 C 101.457031 284.214844 101.492188 283.839844 101.492188 283.460938 C 101.492188 283.082031 101.457031 282.707031 101.382812 282.332031 C 101.308594 281.960938 101.199219 281.601562 101.054688 281.25 C 100.90625 280.898438 100.730469 280.566406 100.519531 280.25 C 100.308594 279.933594 100.070312 279.644531 99.800781 279.375 C 99.53125 279.105469 99.238281 278.867188 98.925781 278.65625 C 98.609375 278.445312 98.277344 278.265625 97.925781 278.121094 C 97.574219 277.976562 97.214844 277.867188 96.839844 277.792969 C 96.46875 277.71875 96.09375 277.683594 95.714844 277.683594 C 95.335938 277.683594 94.957031 277.71875 94.585938 277.792969 C 94.214844 277.867188 93.851562 277.976562 93.503906 278.121094 C 93.152344 278.265625 92.820312 278.445312 92.503906 278.65625 C 92.1875 278.867188 91.894531 279.105469 91.628906 279.375 C 91.359375 279.644531 91.121094 279.933594 90.910156 280.25 C 90.699219 280.566406 90.519531 280.898438 90.375 281.25 C 90.230469 281.601562 90.121094 281.960938 90.046875 282.332031 C 89.972656 282.707031 89.933594 283.082031 89.933594 283.460938 C 89.933594 283.839844 89.972656 284.214844 90.046875 284.589844 C 90.121094 284.960938 90.230469 285.324219 90.375 285.671875 C 90.519531 286.023438 90.699219 286.355469 90.910156 286.671875 C 91.121094 286.988281 91.359375 287.28125 91.628906 287.546875 C 91.894531 287.816406 92.1875 288.054688 92.503906 288.265625 C 92.820312 288.476562 93.152344 288.65625 93.503906 288.800781 C 93.851562 288.945312 94.214844 289.054688 94.585938 289.128906 C 94.957031 289.203125 95.335938 289.242188 95.714844 289.242188 Z M 95.714844 289.242188 "
     fill-opacity="1"
     fill-rule="nonzero"
     id="path11" />
  <path
     stroke-linecap="butt"
     transform="matrix(0, 7.705582, 7.705582, 0, 11.41479, 21.471556)"
     fill="none"
     stroke-linejoin="miter"
     d="M 26.732995 16.50022 C 26.839452 16.639121 26.949457 16.774981 27.063518 16.907291 C 27.177579 17.040109 27.295696 17.169378 27.417361 17.295099 C 27.538519 17.421326 27.663732 17.543498 27.792495 17.662122 C 27.92075 17.780745 28.052554 17.89582 28.187906 18.006839 C 28.323258 18.117859 28.461145 18.225329 28.602581 18.328745 C 28.744017 18.431653 28.887987 18.531013 29.034999 18.62581 C 29.182011 18.720608 29.331557 18.811349 29.483639 18.897529 C 29.63572 18.984215 29.790336 19.065832 29.947487 19.143394 C 30.104131 19.220955 30.263309 19.293954 30.424008 19.362391 C 30.585214 19.430827 30.748448 19.494701 30.912696 19.553506 C 31.077451 19.612311 31.243726 19.66706 31.411523 19.716233 C 31.579826 19.765913 31.748636 19.810524 31.918967 19.850065 C 32.089299 19.890113 32.26115 19.925091 32.433509 19.955001 C 32.605868 19.98491 32.778734 20.00975 32.952613 20.030028 C 33.126493 20.049798 33.30088 20.065006 33.475266 20.075145 C 33.65016 20.084777 33.825053 20.089846 33.999947 20.089846 C 34.17484 20.089846 34.349734 20.084777 34.524627 20.075145 C 34.699014 20.065006 34.8734 20.049798 35.04728 20.030028 C 35.22116 20.00975 35.394025 19.98491 35.566891 19.955001 C 35.73925 19.925091 35.910595 19.890113 36.080926 19.850065 C 36.251257 19.810524 36.420574 19.765913 36.58837 19.716233 C 36.756167 19.66706 36.922442 19.612311 37.087197 19.553506 C 37.251952 19.494701 37.414679 19.430827 37.575885 19.362391 C 37.736584 19.293954 37.895763 19.220955 38.052913 19.143394 C 38.209557 19.065832 38.364173 18.984215 38.516255 18.897529 C 38.668336 18.811349 38.817882 18.720608 38.964894 18.62581 C 39.111906 18.531013 39.256384 18.431653 39.397312 18.328745 C 39.538748 18.225329 39.677142 18.117859 39.811987 18.006839 C 39.94734 17.89582 40.079143 17.780745 40.207906 17.662122 C 40.336161 17.543498 40.461374 17.421326 40.583039 17.295099 C 40.704198 17.169378 40.822314 17.040109 40.936375 16.907291 C 41.050436 16.774981 41.160442 16.639121 41.266898 16.50022 "
     stroke="#ffffff"
     stroke-width="0.5"
     stroke-opacity="1"
     stroke-miterlimit="4"
     id="path12" />
  <g
     clip-path="url(#80a75fe4cb)"
     id="g13">
    <path
       stroke-linecap="butt"
       transform="matrix(0, -7.705582, -7.705582, 0, 820.500842, 545.45107)"
       fill="none"
       stroke-linejoin="miter"
       d="M 0.000240236 1.999978 C 0.131537 1.999978 0.261313 1.987305 0.390075 1.961451 C 0.518837 1.936104 0.644051 1.898084 0.765209 1.847897 C 0.886874 1.79771 1.001949 1.735864 1.110941 1.662865 C 1.220439 1.589866 1.32132 1.507235 1.414089 1.414465 C 1.506859 1.321189 1.589997 1.220308 1.662996 1.111317 C 1.735995 1.001818 1.797334 0.886743 1.847521 0.765585 C 1.898215 0.64392 1.935728 0.519214 1.961582 0.389944 C 1.987436 0.261182 2.000109 0.131406 2.000109 0.000109313 M 65.999979 0.000109313 C 65.999979 0.131406 66.012652 0.261182 66.038506 0.389944 C 66.063853 0.519214 66.101873 0.64392 66.15206 0.765585 C 66.202247 0.886743 66.264093 1.001818 66.337092 1.111317 C 66.410091 1.220308 66.492722 1.321189 66.585999 1.414465 C 66.678768 1.507235 66.779649 1.589866 66.88864 1.662865 C 66.998139 1.735864 67.113214 1.79771 67.234879 1.847897 C 67.356037 1.898084 67.481251 1.936104 67.610013 1.961451 C 67.738775 1.987305 67.868551 1.999978 67.999848 1.999978 M 67.999848 103.000216 C 67.868551 103.000216 67.738775 103.012889 67.610013 103.038236 C 67.481251 103.06409 67.356037 103.10211 67.234879 103.152297 C 67.113214 103.202484 66.998139 103.26433 66.88864 103.336822 C 66.779649 103.409821 66.678768 103.492959 66.585999 103.585729 C 66.492722 103.678498 66.410091 103.779886 66.337092 103.888878 C 66.264093 103.997869 66.202247 104.113451 66.15206 104.234609 C 66.101873 104.355767 66.063853 104.480981 66.038506 104.609743 C 66.012652 104.738505 65.999979 104.868788 65.999979 105.000085 M 2.000109 105.000085 C 2.000109 104.868788 1.987436 104.738505 1.961582 104.609743 C 1.935728 104.480981 1.898215 104.355767 1.847521 104.234609 C 1.797334 104.113451 1.735995 103.997869 1.662996 103.888878 C 1.589997 103.779886 1.506859 103.678498 1.414089 103.585729 C 1.32132 103.492959 1.220439 103.409821 1.110941 103.336822 C 1.001949 103.26433 0.886874 103.202484 0.765209 103.152297 C 0.644051 103.10211 0.518837 103.06409 0.390075 103.038236 C 0.261313 103.012889 0.131537 103.000216 0.000240236 103.000216 "
       stroke="#ffffff"
       stroke-width="0.5"
       stroke-opacity="1"
       stroke-miterlimit="4"
       id="path13" />
  </g>
</svg>
