<?xml version="1.0" encoding="UTF-8" standalone="no"?>
<svg
   width="755"
   zoomAndPan="magnify"
   viewBox="0 0 567 850.499975"
   height="1133"
   preserveAspectRatio="xMidYMid meet"
   version="1.0"
   id="svg15"
   sodipodi:docname="Football_pitch2.svg"
   inkscape:version="1.3.2 (091e20e, 2023-11-25)"
   xmlns:inkscape="http://www.inkscape.org/namespaces/inkscape"
   xmlns:sodipodi="http://sodipodi.sourceforge.net/DTD/sodipodi-0.dtd"
   xmlns="http://www.w3.org/2000/svg"
   xmlns:svg="http://www.w3.org/2000/svg">
  <sodipodi:namedview
     id="namedview15"
     pagecolor="#ffffff"
     bordercolor="#000000"
     borderopacity="0.25"
     inkscape:showpageshadow="2"
     inkscape:pageopacity="0.0"
     inkscape:pagecheckerboard="0"
     inkscape:deskcolor="#d1d1d1"
     inkscape:zoom="0.70962048"
     inkscape:cx="394.57711"
     inkscape:cy="927.25622"
     inkscape:window-width="1440"
     inkscape:window-height="847"
     inkscape:window-x="0"
     inkscape:window-y="25"
     inkscape:window-maximized="0"
     inkscape:current-layer="svg15" />
  <defs
     id="defs1">
    <clipPath
       id="5cfade6f31">
      <path
         d="M 0.167969 0 L 566.832031 0 L 566.832031 850 L 0.167969 850 Z M 0.167969 0 "
         clip-rule="nonzero"
         id="path1" />
    </clipPath>
  </defs>
  <g
     clip-path="url(#5cfade6f31)"
     id="g2">
    <path
       fill="#3f8977"
       d="M 0.167969 0.0078125 L 566.75 0.0078125 L 566.75 849.886719 L 0.167969 849.886719 Z M 0.167969 0.0078125 "
       fill-opacity="1"
       fill-rule="nonzero"
       id="path2"
       style="fill:#4d4d4d" />
  </g>
  <path
     stroke-linecap="butt"
     transform="matrix(7.656552, 0, 0, 7.656552, 23.136232, 22.977383)"
     fill="none"
     stroke-linejoin="miter"
     d="M 0.0000635428 -0.000107173 L 67.999933 -0.000107173 L 67.999933 104.999834 L 0.0000635428 104.999834 Z M 0.0000635428 -0.000107173 "
     stroke="#ffffff"
     stroke-width="0.5"
     stroke-opacity="1"
     stroke-miterlimit="4"
     id="path3" />
  <path
     stroke-linecap="butt"
     transform="matrix(7.656552, 0, 0, 7.656552, 23.136232, 22.977383)"
     fill="none"
     stroke-linejoin="miter"
     d="M 0.0000635428 52.499863 L 67.999933 52.499863 "
     stroke="#ffffff"
     stroke-width="0.5"
     stroke-opacity="1"
     stroke-miterlimit="4"
     id="path4" />
  <path
     stroke-linecap="butt"
     transform="matrix(7.656552, 0, 0, 7.656552, 23.136232, 22.977383)"
     fill="none"
     stroke-linejoin="miter"
     d="M 43.149893 52.499863 C 43.149893 52.649857 43.146321 52.799341 43.139179 52.948825 C 43.131526 53.098309 43.120812 53.247793 43.106017 53.396767 C 43.091221 53.54574 43.072855 53.694204 43.050917 53.842667 C 43.028979 53.990621 43.00347 54.138064 42.974389 54.284997 C 42.944799 54.43193 42.912147 54.577843 42.875924 54.723245 C 42.83919 54.868647 42.799396 55.013029 42.756031 55.155881 C 42.712665 55.299243 42.665728 55.441584 42.61522 55.582395 C 42.564712 55.723716 42.510632 55.862996 42.453491 56.001766 C 42.396351 56.140026 42.335639 56.276755 42.271356 56.411954 C 42.207583 56.547663 42.140238 56.681331 42.069833 56.813469 C 41.998918 56.945096 41.925451 57.075703 41.848413 57.20427 C 41.771375 57.332326 41.691277 57.458851 41.608117 57.583336 C 41.524957 57.707821 41.438736 57.830265 41.349453 57.950669 C 41.260171 58.071072 41.167828 58.188925 41.072934 58.304736 C 40.978039 58.420548 40.880084 58.533809 40.779578 58.644519 C 40.679072 58.755739 40.576014 58.863898 40.469896 58.970016 C 40.364288 59.076135 40.255619 59.179192 40.144909 59.279698 C 40.033689 59.380204 39.920428 59.47816 39.804616 59.573054 C 39.688805 59.667948 39.570952 59.760291 39.450549 59.849573 C 39.330145 59.938345 39.208211 60.024567 39.083216 60.107727 C 38.958731 60.190887 38.832716 60.270985 38.704149 60.348023 C 38.575583 60.425061 38.445486 60.499038 38.313349 60.569443 C 38.181211 60.640359 38.047543 60.707703 37.912344 60.771476 C 37.776635 60.835759 37.639906 60.895961 37.501646 60.953612 C 37.363386 61.010752 37.223596 61.064832 37.082785 61.11534 C 36.941464 61.165338 36.799633 61.212275 36.656271 61.256151 C 36.512909 61.299516 36.368527 61.339311 36.223125 61.375534 C 36.078233 61.412267 35.93181 61.444919 35.784877 61.473999 C 35.638454 61.50359 35.490501 61.529099 35.342547 61.551037 C 35.194594 61.572975 35.04613 61.591342 34.896647 61.606137 C 34.747673 61.620422 34.598699 61.631646 34.449215 61.638789 C 34.299221 61.646441 34.149737 61.650013 34.000253 61.650013 C 33.850259 61.650013 33.700775 61.646441 33.550781 61.638789 C 33.401297 61.631646 33.252324 61.620422 33.10335 61.606137 C 32.953866 61.591342 32.805403 61.572975 32.657449 61.551037 C 32.509496 61.529099 32.361542 61.50359 32.21512 61.473999 C 32.068187 61.444919 31.921764 61.412267 31.776872 61.375534 C 31.631469 61.339311 31.487087 61.299516 31.343725 61.256151 C 31.200364 61.212275 31.058533 61.165338 30.917212 61.11534 C 30.776401 61.064832 30.63661 61.010752 30.498351 60.953612 C 30.360091 60.895961 30.223361 60.835759 30.087653 60.771476 C 29.952454 60.707703 29.818786 60.640359 29.686648 60.569443 C 29.55451 60.499038 29.424413 60.425061 29.295847 60.348023 C 29.167281 60.270985 29.041265 60.190887 28.91678 60.107727 C 28.791785 60.024567 28.669851 59.938345 28.549448 59.849573 C 28.429044 59.760291 28.311192 59.667948 28.19538 59.573054 C 28.079568 59.47816 27.966308 59.380204 27.855088 59.279698 C 27.744378 59.179192 27.635708 59.076135 27.5301 58.970016 C 27.423982 58.863898 27.320925 58.755739 27.220419 58.644519 C 27.119912 58.533809 27.021957 58.420548 26.927063 58.304736 C 26.832169 58.188925 26.739825 58.071072 26.650543 57.950669 C 26.561261 57.830265 26.47504 57.707821 26.39188 57.583336 C 26.30872 57.458851 26.228621 57.332326 26.151583 57.20427 C 26.074545 57.075703 26.001079 56.945096 25.930674 56.813469 C 25.859758 56.681331 25.792414 56.547663 25.728641 56.411954 C 25.664358 56.276755 25.603646 56.140026 25.546505 56.001766 C 25.489364 55.862996 25.435285 55.723716 25.384777 55.582395 C 25.334269 55.441584 25.287332 55.299243 25.243966 55.155881 C 25.2006 55.013029 25.160806 54.868647 25.124073 54.723245 C 25.08785 54.577843 25.055198 54.43193 25.025607 54.284997 C 24.996527 54.138064 24.971018 53.990621 24.94908 53.842667 C 24.927142 53.694204 24.908775 53.54574 24.89398 53.396767 C 24.879184 53.247793 24.868471 53.098309 24.860818 52.948825 C 24.853675 52.799341 24.850104 52.649857 24.850104 52.499863 C 24.850104 52.350379 24.853675 52.200385 24.860818 52.050901 C 24.868471 51.901418 24.879184 51.751934 24.89398 51.60296 C 24.908775 51.453986 24.927142 51.305523 24.94908 51.157569 C 24.971018 51.009106 24.996527 50.861663 25.025607 50.71473 C 25.055198 50.567797 25.08785 50.421884 25.124073 50.276482 C 25.160806 50.131589 25.2006 49.987207 25.243966 49.843846 C 25.287332 49.700484 25.334269 49.558653 25.384777 49.417332 C 25.435285 49.276521 25.489364 49.136731 25.546505 48.998471 C 25.603646 48.860211 25.664358 48.723482 25.728641 48.587773 C 25.792414 48.452574 25.859758 48.318906 25.930674 48.186768 C 26.001079 48.05463 26.074545 47.924534 26.151583 47.795967 C 26.228621 47.667401 26.30872 47.540875 26.39188 47.41639 C 26.47504 47.291905 26.561261 47.169461 26.650543 47.049568 C 26.739825 46.929165 26.832169 46.810802 26.927063 46.6955 C 27.021957 46.579689 27.119912 46.466428 27.220419 46.355208 C 27.320925 46.244498 27.423982 46.135829 27.5301 46.03022 C 27.635708 45.924102 27.744378 45.821045 27.855088 45.720539 C 27.966308 45.619522 28.079568 45.522077 28.19538 45.427183 C 28.311192 45.331779 28.429044 45.239946 28.549448 45.150663 C 28.669851 45.061381 28.791785 44.97516 28.91678 44.892 C 29.041265 44.80884 29.167281 44.728741 29.295847 44.651703 C 29.424413 44.574666 29.55451 44.501199 29.686648 44.430284 C 29.818786 44.359878 29.952454 44.292534 30.087653 44.228251 C 30.223361 44.164478 30.360091 44.103766 30.498351 44.046625 C 30.63661 43.988974 30.776401 43.935405 30.917212 43.884897 C 31.058533 43.834389 31.200364 43.787452 31.343725 43.744086 C 31.487087 43.70072 31.631469 43.660416 31.776872 43.624193 C 31.921764 43.58797 32.068187 43.554808 32.21512 43.525727 C 32.361542 43.496647 32.509496 43.471138 32.657449 43.4492 C 32.805403 43.427262 32.953866 43.408895 33.10335 43.3941 C 33.252324 43.379305 33.401297 43.368591 33.550781 43.360938 C 33.700775 43.353795 33.850259 43.350224 34.000253 43.350224 C 34.149737 43.350224 34.299221 43.353795 34.449215 43.360938 C 34.598699 43.368591 34.747673 43.379305 34.896647 43.3941 C 35.04613 43.408895 35.194594 43.427262 35.342547 43.4492 C 35.490501 43.471138 35.638454 43.496647 35.784877 43.525727 C 35.93181 43.554808 36.078233 43.58797 36.223125 43.624193 C 36.368527 43.660416 36.512909 43.70072 36.656271 43.744086 C 36.799633 43.787452 36.941464 43.834389 37.082785 43.884897 C 37.223596 43.935405 37.363386 43.988974 37.501646 44.046625 C 37.639906 44.103766 37.776635 44.164478 37.912344 44.228251 C 38.047543 44.292534 38.181211 44.359878 38.313349 44.430284 C 38.445486 44.501199 38.575583 44.574666 38.704149 44.651703 C 38.832716 44.728741 38.958731 44.80884 39.083216 44.892 C 39.208211 44.97516 39.330145 45.061381 39.450549 45.150663 C 39.570952 45.239946 39.688805 45.331779 39.804616 45.427183 C 39.920428 45.522077 40.033689 45.619522 40.144909 45.720539 C 40.255619 45.821045 40.364288 45.924102 40.469896 46.03022 C 40.576014 46.135829 40.679072 46.244498 40.779578 46.355208 C 40.880084 46.466428 40.978039 46.579689 41.072934 46.6955 C 41.167828 46.810802 41.260171 46.929165 41.349453 47.049568 C 41.438736 47.169461 41.524957 47.291905 41.608117 47.41639 C 41.691277 47.540875 41.771375 47.667401 41.848413 47.795967 C 41.925451 47.924534 41.998918 48.05463 42.069833 48.186768 C 42.140238 48.318906 42.207583 48.452574 42.271356 48.587773 C 42.335639 48.723482 42.396351 48.860211 42.453491 48.998471 C 42.510632 49.136731 42.564712 49.276521 42.61522 49.417332 C 42.665728 49.558653 42.712665 49.700484 42.756031 49.843846 C 42.799396 49.987207 42.83919 50.131589 42.875924 50.276482 C 42.912147 50.421884 42.944799 50.567797 42.974389 50.71473 C 43.00347 50.861663 43.028979 51.009106 43.050917 51.157569 C 43.072855 51.305523 43.091221 51.453986 43.106017 51.60296 C 43.120812 51.751934 43.131526 51.901418 43.139179 52.050901 C 43.146321 52.200385 43.149893 52.350379 43.149893 52.499863 Z M 43.149893 52.499863 "
     stroke="#ffffff"
     stroke-width="0.5"
     stroke-opacity="1"
     stroke-miterlimit="4"
     id="path5" />
  <path
     fill="#ffffff"
     d="M 289.203125 424.945312 C 289.203125 425.324219 289.164062 425.695312 289.089844 426.066406 C 289.015625 426.4375 288.910156 426.796875 288.765625 427.144531 C 288.621094 427.492188 288.441406 427.824219 288.234375 428.136719 C 288.023438 428.449219 287.785156 428.738281 287.519531 429.007812 C 287.253906 429.273438 286.960938 429.511719 286.648438 429.722656 C 286.335938 429.929688 286.003906 430.105469 285.65625 430.25 C 285.308594 430.394531 284.949219 430.503906 284.578125 430.578125 C 284.210938 430.652344 283.835938 430.6875 283.460938 430.6875 C 283.082031 430.6875 282.707031 430.652344 282.339844 430.578125 C 281.96875 430.503906 281.609375 430.394531 281.261719 430.25 C 280.914062 430.105469 280.582031 429.929688 280.269531 429.722656 C 279.957031 429.511719 279.664062 429.273438 279.398438 429.007812 C 279.132812 428.738281 278.894531 428.449219 278.683594 428.136719 C 278.476562 427.824219 278.296875 427.492188 278.152344 427.144531 C 278.007812 426.796875 277.902344 426.4375 277.828125 426.066406 C 277.753906 425.695312 277.714844 425.324219 277.714844 424.945312 C 277.714844 424.570312 277.753906 424.195312 277.828125 423.824219 C 277.902344 423.457031 278.007812 423.097656 278.152344 422.75 C 278.296875 422.402344 278.476562 422.070312 278.683594 421.757812 C 278.894531 421.441406 279.132812 421.152344 279.398438 420.886719 C 279.664062 420.621094 279.957031 420.382812 280.269531 420.171875 C 280.582031 419.960938 280.914062 419.785156 281.261719 419.640625 C 281.609375 419.496094 281.96875 419.386719 282.339844 419.3125 C 282.707031 419.242188 283.082031 419.203125 283.460938 419.203125 C 283.835938 419.203125 284.210938 419.242188 284.578125 419.3125 C 284.949219 419.386719 285.308594 419.496094 285.65625 419.640625 C 286.003906 419.785156 286.335938 419.960938 286.648438 420.171875 C 286.960938 420.382812 287.253906 420.621094 287.519531 420.886719 C 287.785156 421.152344 288.023438 421.441406 288.234375 421.757812 C 288.441406 422.070312 288.621094 422.402344 288.765625 422.75 C 288.910156 423.097656 289.015625 423.457031 289.089844 423.824219 C 289.164062 424.195312 289.203125 424.570312 289.203125 424.945312 Z M 289.203125 424.945312 "
     fill-opacity="1"
     fill-rule="nonzero"
     id="path6" />
  <path
     stroke-linecap="butt"
     transform="matrix(7.656552, 0, 0, 7.656552, 23.136232, 22.977383)"
     fill="none"
     stroke-linejoin="miter"
     d="M 13.839824 -0.000107173 L 13.839824 16.499752 L 54.160173 16.499752 L 54.160173 -0.000107173 "
     stroke="#ffffff"
     stroke-width="0.5"
     stroke-opacity="1"
     stroke-miterlimit="4"
     id="path7" />
  <path
     stroke-linecap="butt"
     transform="matrix(7.656552, 0, 0, 7.656552, 23.136232, 22.977383)"
     fill="none"
     stroke-linejoin="miter"
     d="M 24.8399 -0.000107173 L 24.8399 5.500186 L 43.160096 5.500186 L 43.160096 -0.000107173 "
     stroke="#ffffff"
     stroke-width="0.5"
     stroke-opacity="1"
     stroke-miterlimit="4"
     id="path8" />
  <path
     fill="#ffffff"
     d="M 289.203125 106.738281 C 289.203125 107.117188 289.164062 107.492188 289.089844 107.859375 C 289.015625 108.230469 288.910156 108.589844 288.765625 108.9375 C 288.621094 109.285156 288.441406 109.617188 288.234375 109.929688 C 288.023438 110.242188 287.785156 110.535156 287.519531 110.800781 C 287.253906 111.066406 286.960938 111.304688 286.648438 111.515625 C 286.335938 111.722656 286.003906 111.902344 285.65625 112.046875 C 285.308594 112.191406 284.949219 112.296875 284.578125 112.371094 C 284.210938 112.445312 283.835938 112.484375 283.460938 112.484375 C 283.082031 112.484375 282.707031 112.445312 282.339844 112.371094 C 281.96875 112.296875 281.609375 112.191406 281.261719 112.046875 C 280.914062 111.902344 280.582031 111.722656 280.269531 111.515625 C 279.957031 111.304688 279.664062 111.066406 279.398438 110.800781 C 279.132812 110.535156 278.894531 110.242188 278.683594 109.929688 C 278.476562 109.617188 278.296875 109.285156 278.152344 108.9375 C 278.007812 108.589844 277.902344 108.230469 277.828125 107.859375 C 277.753906 107.492188 277.714844 107.117188 277.714844 106.738281 C 277.714844 106.363281 277.753906 105.988281 277.828125 105.621094 C 277.902344 105.25 278.007812 104.890625 278.152344 104.542969 C 278.296875 104.195312 278.476562 103.863281 278.683594 103.550781 C 278.894531 103.234375 279.132812 102.945312 279.398438 102.679688 C 279.664062 102.414062 279.957031 102.175781 280.269531 101.964844 C 280.582031 101.757812 280.914062 101.578125 281.261719 101.433594 C 281.609375 101.289062 281.96875 101.179688 282.339844 101.109375 C 282.707031 101.035156 283.082031 100.996094 283.460938 100.996094 C 283.835938 100.996094 284.210938 101.035156 284.578125 101.109375 C 284.949219 101.179688 285.308594 101.289062 285.65625 101.433594 C 286.003906 101.578125 286.335938 101.757812 286.648438 101.964844 C 286.960938 102.175781 287.253906 102.414062 287.519531 102.679688 C 287.785156 102.945312 288.023438 103.234375 288.234375 103.550781 C 288.441406 103.863281 288.621094 104.195312 288.765625 104.542969 C 288.910156 104.890625 289.015625 105.25 289.089844 105.621094 C 289.164062 105.988281 289.203125 106.363281 289.203125 106.738281 Z M 289.203125 106.738281 "
     fill-opacity="1"
     fill-rule="nonzero"
     id="path9" />
  <path
     stroke-linecap="butt"
     transform="matrix(7.656552, 0, 0, 7.656552, 23.136232, 22.977383)"
     fill="none"
     stroke-linejoin="miter"
     d="M 26.733193 16.499752 C 26.839311 16.639033 26.949511 16.774742 27.063792 16.907389 C 27.178073 17.040037 27.295416 17.169114 27.41735 17.295129 C 27.538773 17.421145 27.663769 17.543589 27.792335 17.661951 C 27.920901 17.780824 28.052529 17.895616 28.187727 18.006836 C 28.322926 18.118056 28.461186 18.225195 28.602507 18.328252 C 28.743828 18.431819 28.88821 18.530795 29.035143 18.625689 C 29.182076 18.720583 29.33156 18.811396 29.483595 18.897617 C 29.63614 18.984348 29.790215 19.065978 29.947352 19.143526 C 30.103978 19.221074 30.263156 19.29403 30.424374 19.362395 C 30.585082 19.430759 30.748341 19.494532 30.91313 19.553714 C 31.077409 19.612385 31.243729 19.666974 31.41158 19.716462 C 31.57943 19.76595 31.748812 19.810336 31.919213 19.85013 C 32.089614 19.889925 32.261036 19.925127 32.433478 19.954718 C 32.605921 19.984819 32.778873 20.009818 32.952846 20.029715 C 33.126308 20.050123 33.300791 20.064918 33.475274 20.075122 C 33.650267 20.084815 33.82526 20.089917 33.999743 20.089917 C 34.174736 20.089917 34.349729 20.084815 34.524722 20.075122 C 34.699205 20.064918 34.873688 20.050123 35.047151 20.029715 C 35.221124 20.009818 35.394076 19.984819 35.566518 19.954718 C 35.73896 19.925127 35.910382 19.889925 36.080784 19.85013 C 36.251185 19.810336 36.420566 19.76595 36.588417 19.716462 C 36.756267 19.666974 36.922587 19.612385 37.086866 19.553714 C 37.251656 19.494532 37.414915 19.430759 37.575623 19.362395 C 37.736841 19.29403 37.896018 19.221074 38.052645 19.143526 C 38.209781 19.065978 38.363857 18.984348 38.516402 18.897617 C 38.668437 18.811396 38.817921 18.720583 38.964853 18.625689 C 39.111786 18.530795 39.256169 18.431819 39.397489 18.328252 C 39.53881 18.225195 39.67707 18.118056 39.812269 18.006836 C 39.947468 17.895616 40.079095 17.780824 40.207662 17.661951 C 40.336228 17.543589 40.461223 17.421145 40.582647 17.295129 C 40.704581 17.169114 40.821923 17.040037 40.936204 16.907389 C 41.050486 16.774742 41.160685 16.639033 41.266804 16.499752 "
     stroke="#ffffff"
     stroke-width="0.5"
     stroke-opacity="1"
     stroke-miterlimit="4"
     id="path10" />
  <path
     stroke-linecap="butt"
     transform="matrix(-7.656552, 0, 0, -7.656552, 543.781753, 826.91539)"
     fill="none"
     stroke-linejoin="miter"
     d="M 13.839826 0.000173388 L 13.839826 16.500033 L 54.160175 16.500033 L 54.160175 0.000173388 "
     stroke="#ffffff"
     stroke-width="0.5"
     stroke-opacity="1"
     stroke-miterlimit="4"
     id="path11" />
  <path
     stroke-linecap="butt"
     transform="matrix(-7.656552, 0, 0, -7.656552, 543.781753, 826.91539)"
     fill="none"
     stroke-linejoin="miter"
     d="M 24.839902 0.000173388 L 24.839902 5.499957 L 43.160098 5.499957 L 43.160098 0.000173388 "
     stroke="#ffffff"
     stroke-width="0.5"
     stroke-opacity="1"
     stroke-miterlimit="4"
     id="path12" />
  <path
     fill="#ffffff"
     d="M 277.714844 743.152344 C 277.714844 742.777344 277.753906 742.402344 277.828125 742.03125 C 277.902344 741.664062 278.007812 741.304688 278.152344 740.957031 C 278.296875 740.605469 278.476562 740.277344 278.683594 739.960938 C 278.894531 739.648438 279.132812 739.359375 279.398438 739.09375 C 279.664062 738.824219 279.957031 738.585938 280.269531 738.378906 C 280.582031 738.167969 280.914062 737.992188 281.261719 737.847656 C 281.609375 737.703125 281.96875 737.59375 282.339844 737.519531 C 282.707031 737.445312 283.082031 737.410156 283.460938 737.410156 C 283.835938 737.410156 284.210938 737.445312 284.578125 737.519531 C 284.949219 737.59375 285.308594 737.703125 285.65625 737.847656 C 286.003906 737.992188 286.335938 738.167969 286.648438 738.378906 C 286.960938 738.585938 287.253906 738.824219 287.519531 739.09375 C 287.785156 739.359375 288.023438 739.648438 288.234375 739.960938 C 288.441406 740.277344 288.621094 740.605469 288.765625 740.957031 C 288.910156 741.304688 289.015625 741.664062 289.089844 742.03125 C 289.164062 742.402344 289.203125 742.777344 289.203125 743.152344 C 289.203125 743.53125 289.164062 743.902344 289.089844 744.273438 C 289.015625 744.644531 288.910156 745 288.765625 745.351562 C 288.621094 745.699219 288.441406 746.03125 288.234375 746.34375 C 288.023438 746.65625 287.785156 746.945312 287.519531 747.214844 C 287.253906 747.480469 286.960938 747.71875 286.648438 747.925781 C 286.335938 748.136719 286.003906 748.3125 285.65625 748.457031 C 285.308594 748.601562 284.949219 748.710938 284.578125 748.785156 C 284.210938 748.859375 283.835938 748.894531 283.460938 748.894531 C 283.082031 748.894531 282.707031 748.859375 282.339844 748.785156 C 281.96875 748.710938 281.609375 748.601562 281.261719 748.457031 C 280.914062 748.3125 280.582031 748.136719 280.269531 747.925781 C 279.957031 747.71875 279.664062 747.480469 279.398438 747.214844 C 279.132812 746.945312 278.894531 746.65625 278.683594 746.34375 C 278.476562 746.03125 278.296875 745.699219 278.152344 745.351562 C 278.007812 745 277.902344 744.644531 277.828125 744.273438 C 277.753906 743.902344 277.714844 743.53125 277.714844 743.152344 Z M 277.714844 743.152344 "
     fill-opacity="1"
     fill-rule="nonzero"
     id="path13" />
  <path
     stroke-linecap="butt"
     transform="matrix(-7.656552, 0, 0, -7.656552, 543.781753, 826.91539)"
     fill="none"
     stroke-linejoin="miter"
     d="M 26.733195 16.500033 C 26.839313 16.638803 26.949513 16.775022 27.063794 16.90767 C 27.178076 17.040318 27.295418 17.169394 27.417352 17.29541 C 27.538776 17.420915 27.663771 17.543359 27.792337 17.662232 C 27.920903 17.781105 28.052531 17.895896 28.18773 18.007116 C 28.322928 18.118336 28.461188 18.225475 28.602509 18.328532 C 28.74383 18.431589 28.888212 18.530565 29.035145 18.625969 C 29.182078 18.720864 29.331562 18.811166 29.483597 18.897898 C 29.636142 18.984119 29.790217 19.066258 29.947354 19.143806 C 30.103981 19.220844 30.263158 19.2938 30.424376 19.362165 C 30.585084 19.43053 30.748343 19.494303 30.913132 19.553484 C 31.077412 19.612665 31.243732 19.666745 31.411582 19.716233 C 31.579433 19.76572 31.748814 19.810617 31.919215 19.850411 C 32.089617 19.890205 32.261038 19.924898 32.433481 19.954999 C 32.605923 19.984589 32.778875 20.009588 32.952848 20.029996 C 33.12631 20.049893 33.300793 20.064688 33.475276 20.074892 C 33.650269 20.085096 33.825262 20.090197 33.999745 20.090197 C 34.174738 20.090197 34.349731 20.085096 34.524725 20.074892 C 34.699207 20.064688 34.87369 20.049893 35.047153 20.029996 C 35.221126 20.009588 35.394078 19.984589 35.56652 19.954999 C 35.738962 19.924898 35.910384 19.890205 36.080786 19.850411 C 36.251187 19.810617 36.420568 19.76572 36.588419 19.716233 C 36.756269 19.666745 36.922589 19.612665 37.086868 19.553484 C 37.251658 19.494303 37.414917 19.43053 37.575625 19.362165 C 37.736843 19.2938 37.89602 19.220844 38.052647 19.143806 C 38.209783 19.066258 38.363859 18.984119 38.516404 18.897898 C 38.668439 18.811166 38.817923 18.720864 38.964856 18.625969 C 39.111789 18.530565 39.256171 18.431589 39.397492 18.328532 C 39.538813 18.225475 39.677072 18.118336 39.812271 18.007116 C 39.94747 17.895896 40.079097 17.781105 40.207664 17.662232 C 40.33623 17.543359 40.461225 17.420915 40.582649 17.29541 C 40.704583 17.169394 40.821925 17.040318 40.936206 16.90767 C 41.050488 16.775022 41.160687 16.638803 41.266806 16.500033 "
     stroke="#ffffff"
     stroke-width="0.5"
     stroke-opacity="1"
     stroke-miterlimit="4"
     id="path14" />
  <path
     stroke-linecap="butt"
     transform="matrix(7.656552, 0, 0, 7.656552, 23.136232, 22.977383)"
     fill="none"
     stroke-linejoin="miter"
     d="M 0.0000635428 1.999814 C 0.131181 1.999814 0.261278 1.987059 0.390354 1.96155 C 0.518921 1.936041 0.643916 1.897777 0.765339 1.847779 C 0.886763 1.797271 1.002065 1.736049 1.111244 1.663093 C 1.220424 1.590136 1.32144 1.506976 1.414293 1.414123 C 1.507147 1.321269 1.589797 1.220253 1.662753 1.111073 C 1.735709 1.001894 1.797442 0.886593 1.84795 0.765169 C 1.897948 0.644255 1.935701 0.51875 1.961721 0.390184 C 1.98723 0.261617 1.999985 0.13152 1.999985 -0.000107173 M 66.000012 -0.000107173 C 66.000012 0.13152 66.012766 0.261617 66.038276 0.390184 C 66.064295 0.51875 66.102049 0.644255 66.152047 0.765169 C 66.202555 0.886593 66.264287 1.001894 66.337243 1.111073 C 66.4102 1.220253 66.49285 1.321269 66.585703 1.414123 C 66.678557 1.506976 66.779573 1.590136 66.888752 1.663093 C 66.997932 1.736049 67.113233 1.797271 67.234657 1.847779 C 67.356081 1.897777 67.481076 1.936041 67.609642 1.96155 C 67.738719 1.987059 67.868816 1.999814 67.999933 1.999814 M 67.999933 102.999913 C 67.868816 102.999913 67.738719 103.012667 67.609642 103.038176 C 67.481076 103.064196 67.356081 103.101949 67.234657 103.152458 C 67.113233 103.202456 66.997932 103.264188 66.888752 103.337144 C 66.779573 103.410101 66.678557 103.49275 66.585703 103.585604 C 66.49285 103.678457 66.4102 103.779474 66.337243 103.888653 C 66.264287 103.997832 66.202555 104.113134 66.152047 104.234558 C 66.102049 104.355982 66.064295 104.480977 66.038276 104.610053 C 66.012766 104.73862 66.000012 104.868716 66.000012 104.999834 M 1.999985 104.999834 C 1.999985 104.868716 1.98723 104.73862 1.961721 104.610053 C 1.935701 104.480977 1.897948 104.355982 1.84795 104.234558 C 1.797442 104.113134 1.735709 103.997832 1.662753 103.888653 C 1.589797 103.779474 1.507147 103.678457 1.414293 103.585604 C 1.32144 103.49275 1.220424 103.410101 1.111244 103.337144 C 1.002065 103.264188 0.886763 103.202456 0.765339 103.152458 C 0.643916 103.101949 0.518921 103.064196 0.390354 103.038176 C 0.261278 103.012667 0.131181 102.999913 0.0000635428 102.999913 "
     stroke="#ffffff"
     stroke-width="0.5"
     stroke-opacity="1"
     stroke-miterlimit="4"
     id="path15" />
</svg>
